<svg version="1.0" xmlns="http://www.w3.org/2000/svg"
 width="30px" height="30px" viewBox="0 0 477.000000 523.000000"
 preserveAspectRatio="xMidYMid meet">

<g transform="translate(0.000000,523.000000) scale(0.100000,-0.100000)"
 stroke="none">
<path  d="M2800 5172 c-72 -24 -94 -36 -141 -79 -50 -46 -103 -139 -124 -223
-14 -52 -16 -93 -12 -200 3 -74 12 -155 19 -180 l14 -45 379 3 c209 2 383 6
386 10 10 10 39 188 39 237 0 60 -25 150 -66 234 -97 197 -312 303 -494 243z
m227 -58 c24 -9 43 -20 43 -25 0 -5 -13 -15 -29 -23 -100 -52 -119 -182 -36
-255 64 -56 150 -53 216 6 24 22 44 32 49 27 19 -19 30 -141 21 -233 -6 -50
-13 -95 -16 -101 -4 -6 -127 -10 -340 -10 -308 0 -333 1 -340 18 -14 33 -18
265 -6 324 27 127 110 238 204 272 58 20 181 20 234 0z"/>
<path d="M1563 5161 c-121 -45 -202 -135 -246 -276 -18 -59 -22 -90 -20 -195
1 -69 8 -152 15 -185 l14 -60 386 -3 386 -2 11 51 c18 85 24 219 12 284 -18
101 -81 214 -157 284 -94 86 -157 114 -264 118 -65 2 -97 -2 -137 -16z m212
-46 c76 -22 84 -36 35 -64 -101 -57 -110 -203 -15 -261 68 -41 154 -32 207 21
16 16 33 29 38 29 4 0 14 -23 20 -52 13 -52 9 -244 -5 -280 -7 -17 -32 -18
-341 -18 l-334 0 -11 27 c-19 51 -23 242 -5 316 28 119 88 212 160 249 95 49
163 58 251 33z"/>
<path fill="#C7212F" d="M434 4489 c-3 -6 -3 -402 1 -880 l8 -869 -49 1 c-27 0 -71 4 -99 7
l-50 7 -5 865 c-5 790 -6 865 -21 864 -9 -1 -57 -30 -107 -65 l-91 -64 1 -740
c2 -1584 13 -2814 25 -2826 6 -6 236 -78 510 -160 274 -82 757 -227 1073 -322
l575 -172 140 2 140 2 900 286 c495 157 999 317 1119 356 l219 71 -7 626 c-3
345 -8 1079 -11 1632 -3 553 -8 1059 -11 1125 l-6 120 -86 67 c-68 53 -89 65
-98 55 -9 -9 -15 -238 -22 -865 -5 -469 -11 -855 -14 -857 -2 -2 -41 -7 -87
-11 l-84 -7 5 877 c4 545 2 879 -4 882 -12 8 -148 -71 -791 -458 -292 -177
-640 -386 -773 -465 l-241 -145 -7 -546 c-3 -301 -9 -944 -12 -1429 -7 -841
-6 -883 11 -883 9 0 164 43 344 96 605 177 1005 295 1231 363 l225 67 5 796
c3 512 9 800 15 806 6 5 45 12 88 15 l77 5 0 -592 c0 -326 -3 -714 -7 -863
l-6 -270 -191 -61 c-105 -33 -297 -94 -426 -135 -129 -41 -485 -154 -790 -250
l-555 -176 -120 -7 c-107 -6 -130 -4 -200 16 -104 29 -909 257 -1470 416 -242
69 -443 129 -446 132 -4 4 -9 409 -13 899 l-6 893 93 -6 c50 -4 95 -9 99 -13
3 -3 9 -366 13 -806 4 -440 8 -800 8 -801 14 -8 1788 -524 1801 -524 18 0 19
16 12 432 -3 238 -9 880 -12 1426 -6 790 -10 994 -20 1003 -23 19 -1775 1069
-1784 1069 -5 0 -12 -5 -16 -11z"/>
<path d="M2275 4320 c-8 -16 -15 -48 -15 -71 0 -33 6 -47 34 -75 30 -30 66
-45 66 -28 0 4 -16 24 -35 45 -38 43 -43 69 -20 113 19 36 19 46 0 46 -8 0
-21 -13 -30 -30z"/>
<path d="M1611 4232 c-16 -30 -25 -102 -13 -102 14 0 44 102 33 113 -5 5 -14
1 -20 -11z"/>
<path d="M3100 4238 c1 -29 28 -102 40 -106 14 -5 8 45 -10 94 -10 25 -30 33
-30 12z"/>
<path d="M1707 4208 c-22 -51 -31 -111 -16 -106 10 3 48 106 49 131 0 20 -21
3 -33 -25z"/>
<path d="M3000 4230 c0 -31 37 -130 48 -130 15 0 10 33 -13 99 -11 34 -35 55
-35 31z"/>
<path d="M1796 4189 c-2 -8 -12 -35 -22 -62 -17 -47 -15 -65 5 -53 18 11 44
107 32 119 -7 7 -12 6 -15 -4z"/>
<path d="M2920 4173 c1 -27 37 -103 50 -103 11 0 10 8 -15 79 -13 38 -35 53
-35 24z"/>
<path d="M2625 4030 c-3 -5 -4 -19 0 -30 5 -15 -2 -23 -34 -40 -112 -56 -303
-65 -436 -19 -66 23 -70 26 -73 57 -2 17 -7 32 -12 32 -12 0 -50 -73 -50 -95
0 -18 26 -21 32 -3 3 8 24 4 69 -14 167 -67 302 -63 486 13 30 12 34 11 47 -6
12 -16 17 -17 27 -8 9 9 9 16 1 26 -6 7 -15 31 -20 52 -8 39 -25 55 -37 35z"/>
</g>
</svg>
