<svg width="350" height="350" viewBox="0 0 598 571" fill="none" xmlns="http://www.w3.org/2000/svg">
<path d="M242.808 120.965C242.808 122.111 244.06 122.685 246.563 122.685C249.066 122.685 250.317 122.111 250.317 120.965C250.317 119.818 249.066 119.245 246.563 119.245C244.06 119.245 242.808 119.818 242.808 120.965Z" fill="black"/>
<path d="M205.263 137.017V153.643H212.898C220.031 153.643 220.407 153.528 220.031 151.005C219.781 149.171 218.654 148.368 216.277 148.139L212.772 147.795V134.036V120.392H209.018H205.263V137.017Z" fill="black"/>
<path d="M255.323 123.143C255.323 124.749 254.823 126.354 254.072 126.698C253.446 127.042 252.82 128.418 252.82 129.679C252.82 130.826 253.446 131.857 254.072 131.857C254.823 131.857 255.323 136.214 255.323 142.75V153.643H258.828H262.207L262.081 140.113C261.706 118.901 261.956 120.392 258.452 120.392C255.949 120.392 255.323 120.965 255.323 123.143Z" fill="black"/>
<path d="M364.204 123.373C364.204 125.895 363.828 126.239 361.325 125.666C359.573 125.322 357.195 125.781 355.693 126.812C353.19 128.418 352.94 129.564 352.94 139.769C352.94 151.464 353.816 153.643 358.572 153.643C360.074 153.643 361.826 153.069 362.702 152.267C363.828 151.235 364.204 151.235 364.204 152.267C364.204 153.069 365.58 153.643 367.332 153.643H370.461V137.017V120.392H367.332C364.829 120.392 364.204 120.965 364.204 123.373ZM363.578 139.998C363.578 146.763 363.202 148.483 361.701 148.483C360.324 148.483 359.698 146.763 359.448 141.145C359.072 133.004 359.698 130.252 362.076 131.055C363.077 131.284 363.578 134.151 363.578 139.998Z" fill="black"/>
<path d="M226.289 126.239C223.535 127.156 222.784 128.418 222.034 132.66C221.032 139.081 222.159 149.859 224.161 152.037C226.163 154.216 234.674 154.101 237.051 151.808C238.178 150.891 239.054 148.483 239.054 146.648C239.054 143.897 238.553 143.323 236.05 143.323C233.798 143.323 232.796 144.011 232.546 145.846C231.795 150.547 229.042 149.515 229.042 144.585V139.884H234.048H239.054V134.265C239.054 131.169 238.303 128.188 237.427 127.5C234.924 125.551 229.918 124.978 226.289 126.239ZM232.796 133.692C232.796 135.412 232.045 136.444 230.919 136.444C229.042 136.444 228.291 131.857 229.793 130.367C231.295 129.106 232.796 130.711 232.796 133.692Z" fill="black"/>
<path d="M270.967 126.354C266.962 128.418 266.587 129.564 266.587 139.998C266.587 151.349 268.089 153.643 275.723 153.643C282.356 153.643 284.108 150.661 284.108 139.196C284.108 130.367 283.857 129.564 280.854 127.386C277.099 124.634 274.596 124.405 270.967 126.354ZM277.85 139.196C277.85 146.534 276.599 149.859 274.221 148.598C272.719 147.68 272.219 131.628 273.72 130.367C275.848 128.303 277.85 132.545 277.85 139.196Z" fill="black"/>
<path d="M297.374 125.781C296.873 126.239 294.37 126.468 291.617 126.354L286.611 126.01V139.884V153.643H290.365H293.995L294.37 142.406C294.746 131.857 294.871 131.284 297.624 130.94C299.376 130.711 300.377 129.794 300.377 128.418C300.377 126.01 298.75 124.634 297.374 125.781Z" fill="black"/>
<path d="M306.384 126.239C303.631 127.156 302.88 128.418 302.129 132.66C301.128 139.081 302.254 149.859 304.257 152.037C306.259 154.216 314.769 154.101 317.147 151.808C318.274 150.891 319.15 148.483 319.15 146.648C319.15 143.897 318.649 143.323 316.146 143.323C313.893 143.323 313.017 144.011 312.642 145.846C312.016 150.088 309.763 148.827 309.388 144.126L309.013 139.884H314.019H319.15V134.265C319.15 131.169 318.399 128.188 317.523 127.5C315.02 125.551 310.014 124.978 306.384 126.239ZM312.892 133.692C312.892 135.412 312.141 136.444 311.015 136.444C309.138 136.444 308.387 131.857 309.889 130.367C311.39 129.106 312.892 130.711 312.892 133.692Z" fill="black"/>
<path d="M326.659 126.468C324.281 127.5 323.405 128.991 323.154 132.087C322.779 135.756 323.405 136.673 327.785 139.998C331.289 142.521 332.916 144.585 332.916 146.534C332.916 149.859 329.913 149.4 329.412 145.846C329.036 143.897 328.16 143.323 325.282 143.323C321.277 143.323 320.651 145.158 323.029 149.4C325.032 152.84 326.533 153.643 331.414 153.643C336.545 153.643 340.425 150.203 340.425 145.502C340.425 142.75 339.174 140.801 334.543 136.902C329.913 133.004 328.911 131.628 330.038 130.596C331.289 129.45 331.79 129.564 332.416 131.055C332.916 132.316 334.543 133.004 336.921 133.004C339.799 133.004 340.55 132.545 339.925 131.169C339.549 130.138 339.174 128.991 339.174 128.532C339.174 127.5 333.542 124.978 331.289 124.978C330.413 124.978 328.411 125.666 326.659 126.468Z" fill="black"/>
<path d="M377.97 126.354C376.218 127.271 374.716 129.106 374.466 130.482C374.09 132.545 374.591 133.004 377.344 133.004C379.096 133.004 380.848 132.201 381.224 131.284C382.225 129.106 384.228 130.252 384.228 133.004C384.228 134.265 382.475 135.87 379.597 137.246C375.467 139.081 374.841 139.884 374.466 143.782C373.84 150.661 375.092 153.643 378.346 153.643C379.972 153.643 381.85 153.069 382.726 152.267C383.852 151.235 384.228 151.235 384.228 152.267C384.228 153.069 385.854 153.643 387.982 153.643H391.737V141.833C391.737 134.151 391.236 129.335 390.235 128.074C387.982 125.437 381.725 124.634 377.97 126.354ZM383.727 147.566C383.351 148.483 382.475 148.827 381.725 148.483C379.972 147.451 380.223 141.718 382.1 139.998C383.351 138.852 383.727 139.31 383.977 142.177C384.228 144.241 384.102 146.648 383.727 147.566Z" fill="black"/>
<path d="M242.808 139.884V153.643H246.563H250.317V139.884V126.125H246.563H242.808V139.884Z" fill="black"/>
<path d="M318.023 182.537C311.14 185.632 307.886 191.939 307.886 202.372C307.886 213.838 306.76 213.265 327.91 213.265C348.81 213.265 347.934 213.724 347.934 203.519C347.934 194.805 342.928 186.435 335.419 182.766C328.536 179.326 325.032 179.326 318.023 182.537ZM333.542 184.6C333.917 185.174 333.792 185.747 333.041 185.747C332.29 185.747 330.789 187.008 329.662 188.613C325.407 194.69 333.166 201.341 340.425 197.901C343.554 196.525 344.054 196.525 344.68 198.015C345.681 200.194 345.556 205.124 344.68 208.449C343.929 210.972 343.554 211.087 327.41 210.743L311.015 210.399L310.639 204.666C310.014 196.296 311.265 191.939 315.645 187.467C319.024 183.798 320.026 183.454 326.033 183.454C329.787 183.454 333.166 183.912 333.542 184.6Z" fill="black"/>
<path d="M256.95 183.454C250.693 186.894 247.814 193.314 247.814 203.404C247.814 209.023 248.315 212.348 249.441 212.921C250.192 213.38 258.702 213.838 268.214 213.838C287.987 213.838 287.862 213.953 287.862 204.322C287.862 194.346 283.357 186.779 275.097 182.766C270.216 180.473 261.706 180.817 256.95 183.454ZM272.219 184.142C273.971 184.83 273.971 185.174 271.593 187.467C267.963 191.021 268.589 196.066 273.22 198.359C276.348 199.965 276.974 199.85 280.478 198.13C285.109 195.722 285.61 196.64 285.109 205.354L284.734 211.545L268.339 211.889C252.195 212.233 251.819 212.118 251.068 209.596C248.565 200.653 252.695 187.811 259.078 184.944C262.457 183.339 268.84 182.995 272.219 184.142Z" fill="black"/>
<path d="M205.263 250.529C205.263 288.71 205.138 290.086 202.886 290.086C196.253 290.086 196.503 291.692 196.503 250.414C196.503 208.335 196.753 209.252 189.119 215.1L185.24 218.081L185.365 274.951C185.49 306.368 185.865 342.141 186.366 354.754L187.117 377.456L203.386 381.928C212.397 384.45 226.414 388.349 234.674 390.527C258.202 397.063 272.594 400.961 283.857 404.172C296.748 407.726 301.378 407.726 312.392 404.286C317.147 402.796 327.785 399.7 336.045 397.292C344.305 394.999 355.068 391.903 359.823 390.413C367.833 388.005 379.597 384.565 405.253 377.112L414.263 374.475V296.507V218.425L409.758 215.214C407.38 213.38 405.002 212.233 404.627 212.577C404.251 212.921 403.501 230.349 403.125 251.332L402.374 289.513L398.369 289.857L394.24 290.201L393.989 250.529L393.614 210.857L349.811 234.936L306.009 259.129L305.383 322.42C305.008 357.276 305.008 386.17 305.383 386.629C305.759 386.973 313.393 385.253 322.278 382.845C331.289 380.323 343.053 377.112 348.56 375.622C362.702 371.723 389.484 364.614 392.112 363.927C394.114 363.353 394.24 360.601 394.24 327.236V291.233H398.62H403V322.649C403 339.848 402.625 357.162 402.249 360.945C401.248 369.315 407.005 366.678 356.695 381.24C352.94 382.272 340.3 385.941 328.786 389.381C313.768 393.738 305.383 395.572 299.877 395.687C291.492 395.916 286.11 394.655 216.277 376.08C209.143 374.246 201.884 372.411 200.007 371.953L196.503 371.265V331.134V291.118L201.259 291.462L205.889 291.806L206.515 327.809L207.141 363.697L217.153 366.449C222.659 367.94 230.043 369.889 233.422 370.806C247.939 374.475 278.851 382.96 283.983 384.565C286.986 385.597 290.741 386.4 292.368 386.4H295.246L294.62 323.567C294.245 289.054 293.744 260.275 293.494 259.702C293.244 258.67 283.857 253.281 262.707 241.93C249.692 234.936 215.526 216.132 214.024 214.985C213.023 214.297 210.645 213.15 208.768 212.348L205.263 210.972V250.529Z" fill="#C7212F"/>
<path d="M295.121 219.915C294.37 222.552 296.122 227.024 297.874 227.024C298.75 227.024 298.5 225.992 297.374 224.502C295.997 222.782 295.872 221.52 296.748 219.915C297.499 218.769 297.499 217.851 296.873 217.851C296.122 217.851 295.371 218.769 295.121 219.915Z" fill="black"/>
<path d="M262.457 224.616C261.956 226.565 262.081 227.024 263.083 226.107C263.708 225.534 264.084 224.272 263.834 223.47C263.458 222.552 262.957 223.126 262.457 224.616Z" fill="black"/>
<path d="M267.338 225.419C266.837 227.024 266.712 228.629 266.962 228.973C267.338 229.203 267.963 228.056 268.339 226.336C268.839 224.731 268.965 223.126 268.714 222.782C268.339 222.552 267.713 223.699 267.338 225.419Z" fill="black"/>
<path d="M331.039 224.731C331.54 226.336 332.541 228.056 333.166 228.744C334.043 229.547 334.168 228.973 333.542 227.024C333.041 225.419 332.04 223.584 331.414 223.011C330.538 222.208 330.413 222.782 331.039 224.731Z" fill="black"/>
<path d="M335.419 223.011C335.419 223.584 336.045 224.96 336.671 225.878C337.296 226.795 337.922 227.024 337.922 226.451C337.922 225.763 337.296 224.502 336.671 223.584C336.045 222.667 335.419 222.323 335.419 223.011Z" fill="black"/>
<path d="M271.718 225.534C271.593 226.221 271.217 227.827 270.842 228.973C270.216 230.922 270.216 230.922 271.593 228.973C272.344 227.827 272.719 226.336 272.344 225.534C271.968 224.502 271.718 224.502 271.718 225.534Z" fill="black"/>
<path d="M326.659 225.878C326.659 226.795 327.284 228.4 327.91 229.317C329.037 230.808 329.162 230.808 329.162 229.317C329.162 228.4 328.536 226.795 327.91 225.878C326.784 224.387 326.659 224.387 326.659 225.878Z" fill="black"/>
<path d="M312.016 233.789C309.138 237.917 290.365 238.375 286.11 234.477C284.608 232.986 284.233 233.101 283.607 234.592C282.606 236.999 282.606 236.77 285.109 236.999C286.235 237.114 290.115 237.802 293.619 238.605C299.001 239.866 301.003 239.751 306.51 238.031C310.014 236.999 313.518 236.426 314.144 236.77C315.52 237.573 315.645 236.541 314.394 233.674C313.518 231.725 313.393 231.725 312.016 233.789Z" fill="black"/>
<path d="M328.16 430.772C328.411 432.034 329.913 432.951 332.04 433.18C334.793 433.524 335.419 433.066 335.419 431.231C335.419 429.282 334.668 428.823 331.54 428.823C328.536 428.823 327.785 429.282 328.16 430.772Z" fill="black"/>
<path d="M261.581 446.481V463.221H265.335H269.215L268.839 446.825L268.464 430.543L265.085 430.199L261.581 429.855V446.481Z" fill="black"/>
<path d="M241.807 445.105C239.805 463.794 239.68 463.221 243.434 463.221C245.687 463.221 246.563 462.648 246.563 460.928C246.563 459.437 247.439 458.635 248.941 458.635C250.317 458.635 251.819 459.666 252.195 460.928C252.695 462.418 254.072 463.221 256.074 463.221C258.953 463.221 259.078 462.877 258.577 459.437C257.826 455.539 255.323 434.327 255.323 432.263C255.323 431.69 252.57 431.116 249.316 431.116H243.184L241.807 445.105ZM250.693 445.105C251.193 451.296 250.943 452.902 249.566 452.902C248.315 452.902 247.814 451.182 247.814 446.71C247.814 441.206 248.816 436.161 249.692 437.079C249.817 437.308 250.317 440.862 250.693 445.105Z" fill="black"/>
<path d="M273.72 437.767C272.093 439.372 271.593 442.238 271.593 449.691C271.593 457.947 271.968 459.781 274.096 461.501C279.602 466.087 289.114 462.648 289.114 456.112C289.114 453.475 288.613 452.902 286.11 452.902C283.857 452.902 282.856 453.59 282.606 455.424C282.105 458.978 279.352 459.322 278.351 455.883C277.099 451.067 278.476 449.462 284.108 449.462H289.114V444.417C289.114 441.321 288.363 438.569 287.111 437.537C284.358 435.015 276.223 435.129 273.72 437.767ZM282.231 443.729C282.231 445.219 281.48 446.595 280.729 446.825C278.726 447.513 277.35 444.417 278.351 441.894C279.477 439.257 282.231 440.633 282.231 443.729Z" fill="black"/>
<path d="M294.245 437.193C293.494 437.881 292.868 442.468 292.868 447.857C292.868 458.176 294.245 460.469 299.751 459.437C302.254 459.093 302.88 459.322 302.63 460.813C302.254 462.074 301.003 462.648 298.25 462.533C293.494 462.304 291.867 464.941 295.622 466.775C298.5 468.266 306.009 467.463 308.637 465.399C310.014 464.367 310.389 460.698 310.389 449.92V435.817H303.005C299.001 435.817 294.996 436.505 294.245 437.193ZM302.88 447.742C302.88 451.984 302.38 455.195 301.629 455.195C300.878 455.195 300.377 451.984 300.377 447.742C300.377 443.5 300.878 440.289 301.629 440.289C302.38 440.289 302.88 443.5 302.88 447.742Z" fill="black"/>
<path d="M314.144 449.462V463.221H317.272C320.401 463.221 320.401 463.221 320.401 452.328C320.401 441.665 320.526 441.436 323.53 440.748C325.532 440.289 326.659 439.257 326.659 437.881C326.659 435.473 324.156 435.015 321.903 437.079C320.777 438.111 320.401 438.111 320.401 437.079C320.401 436.276 319.025 435.703 317.272 435.703H314.144V449.462Z" fill="black"/>
<path d="M327.91 449.462V463.221H331.665H335.419V449.462V435.703H331.665H327.91V449.462Z" fill="black"/>
<path d="M340.675 437.079C339.799 437.881 339.174 439.601 339.174 441.092C339.174 443.156 339.925 443.729 342.302 443.729C344.305 443.729 345.431 443.041 345.431 442.009C345.431 441.092 346.307 440.289 347.308 440.289C348.435 440.289 349.186 441.321 349.186 442.926C349.186 444.875 348.059 445.907 344.931 446.939C341.927 447.971 340.175 449.462 339.299 451.87C337.672 456.227 338.798 461.845 341.802 463.221C344.68 464.711 344.931 464.711 347.183 462.533C348.31 461.616 349.186 461.272 349.186 461.96C349.186 462.648 350.938 463.221 352.94 463.221H356.695V451.411C356.695 441.321 356.319 439.257 354.442 437.652C351.689 435.359 342.928 435.015 340.675 437.079ZM349.186 453.475C349.186 457.259 348.685 458.635 347.308 458.635C344.931 458.635 344.68 451.755 346.933 449.691C349.06 447.742 349.186 447.857 349.186 453.475Z" fill="black"/>
</svg>
