<svg version="1.1" id="Layer_1" xmlns="http://www.w3.org/2000/svg" xmlns:xlink="http://www.w3.org/1999/xlink" x="0px" y="0px"
	 width="100%" viewBox="0 0 424 690" enable-background="new 0 0 424 690" xml:space="preserve">
<path fill="#FDFDFD" opacity="1.000000" stroke="none" 
	d="
M425.000000,254.000000 
	C425.000000,400.000000 425.000000,545.500000 425.000000,691.000000 
	C283.666656,691.000000 142.333328,691.000000 1.000000,691.000000 
	C1.000000,461.000000 1.000000,231.000000 1.000000,1.000000 
	C142.333328,1.000000 283.666656,1.000000 425.000000,1.000000 
	C425.000000,85.166664 425.000000,169.333328 425.000000,254.000000 
M205.405273,524.994629 
	C205.686050,524.694214 205.682266,524.397522 205.660446,523.204773 
	C205.050705,445.069153 204.405350,366.933777 203.939880,288.797302 
	C203.917389,285.020294 201.993530,283.530914 199.380051,281.962463 
	C151.712997,253.355942 104.056030,224.732574 56.372890,196.152878 
	C54.790077,195.204178 52.955265,194.675919 50.548676,193.661011 
	C50.548676,243.792938 50.548676,292.984741 50.548676,342.536285 
	C45.438332,342.098022 40.377674,341.664032 34.374985,341.149231 
	C34.374985,292.163574 34.374985,243.557495 34.374985,194.951401 
	C33.903049,194.747910 33.431118,194.544418 32.959183,194.340927 
	C27.290129,198.562469 21.621073,202.784012 15.461860,207.207291 
	C15.464002,207.699463 15.466144,208.191650 15.346629,209.170975 
	C15.450079,209.481537 15.553530,209.792099 15.368088,210.855789 
	C15.871798,307.517700 16.439468,404.179413 16.715824,500.841980 
	C16.731924,506.473480 18.711819,508.557831 23.623663,510.011841 
	C81.857750,527.250427 139.965790,544.924561 198.349838,561.635620 
	C206.563751,563.986755 216.714966,563.898499 224.882004,561.393677 
	C285.645325,542.757751 346.124695,523.196716 406.730621,504.044586 
	C410.724243,502.782562 412.049072,500.886292 412.002869,496.617493 
	C411.331635,434.623688 410.840515,372.627899 410.342224,310.632294 
	C410.075714,277.469635 409.902405,244.306183 409.582825,211.144073 
	C409.565399,209.336533 409.141998,206.915344 407.950592,205.851471 
	C404.249023,202.546097 400.085968,199.757507 395.738708,196.192154 
	C390.592255,194.001694 391.993866,198.214523 391.962891,200.342697 
	C391.305359,245.492142 390.741211,290.642975 390.163177,335.793579 
	C390.140472,337.567871 390.160278,339.342651 390.160278,341.405853 
	C387.446960,341.642731 385.315704,341.852448 383.180573,342.008728 
	C380.930603,342.173401 378.676910,342.286987 376.251404,342.433350 
	C376.251404,292.705811 376.251404,243.450668 376.251404,193.352982 
	C373.615021,194.697266 371.809479,195.486191 370.133789,196.491562 
	C322.744812,224.923340 275.392395,253.416245 227.944153,281.748657 
	C224.336502,283.902863 223.109207,286.294098 223.085861,290.451355 
	C222.654358,367.260620 222.057449,444.068970 221.523254,520.877686 
	C221.511368,522.588867 221.824524,524.302246 221.986847,526.023071 
	C223.274490,526.023071 223.975082,526.178650 224.577072,526.000671 
	C250.731400,518.269775 276.877045,510.509369 303.618591,502.799866 
	C303.940704,502.584137 304.262817,502.368439 305.322083,502.193939 
	C327.879913,495.476105 350.437744,488.758301 373.673309,482.134796 
	C374.204315,481.790436 374.735291,481.446075 375.888245,480.506073 
	C375.792633,478.517365 375.607910,476.528381 375.614532,474.540009 
	C375.750946,433.566925 375.909393,392.593903 376.062134,351.620850 
	C376.068695,349.860535 376.062988,348.100159 376.062988,346.282318 
	C381.014465,345.857880 385.240723,345.495605 389.382751,345.140564 
	C389.594757,345.929443 389.751587,346.240112 389.751282,346.550598 
	C389.702545,393.020325 389.618378,439.490051 389.644928,485.959747 
	C389.646484,488.650330 388.685486,489.699097 386.242523,490.462708 
	C376.736481,493.434052 367.297791,496.620728 357.521271,499.596680 
	C357.268250,499.627869 357.099518,499.763794 356.245728,499.995148 
	C315.520813,512.921692 274.776154,525.786621 234.081543,538.807983 
	C219.741913,543.396423 205.483688,544.196960 191.069458,539.338867 
	C188.722687,538.547913 186.239334,538.162231 183.317261,537.153992 
	C182.881836,537.126831 182.446396,537.099731 181.365097,536.677490 
	C148.887512,527.414978 116.408752,518.156616 83.932945,508.887939 
	C70.332924,505.006439 56.751904,501.057709 43.137497,497.227509 
	C35.781261,495.157928 35.760883,495.241638 35.727455,487.471375 
	C35.531704,441.975006 35.334030,396.478638 35.138607,350.982269 
	C35.130211,349.027496 35.137535,347.072662 35.137535,344.819122 
	C40.631264,345.359528 45.702175,345.858368 51.525845,346.431244 
	C51.525845,390.478333 51.504818,434.125763 51.615147,477.772858 
	C51.618923,479.266815 52.629734,481.767059 53.695030,482.094666 
	C65.247879,485.647125 76.905647,488.858398 88.900894,492.575348 
	C89.255623,492.619415 89.610352,492.663452 90.666374,493.058990 
	C127.284157,503.845734 163.897736,514.646912 200.536285,525.362671 
	C201.900879,525.761780 203.508881,525.328796 205.405273,524.994629 
M225.849411,170.233826 
	C226.526321,178.988098 227.062042,187.758194 228.040771,196.478592 
	C228.178757,197.708130 230.470032,199.638870 231.781174,199.652512 
	C251.576035,199.858414 271.373993,199.840378 291.169891,199.695099 
	C292.376373,199.686249 294.379883,198.380875 294.650421,197.328583 
	C298.314087,183.076981 298.528534,169.138824 290.993927,155.751968 
	C281.519073,138.917816 262.439819,131.441299 245.977295,138.700287 
	C232.748917,144.533203 228.030502,156.145081 225.849411,170.233826 
M183.469009,150.049637 
	C180.297882,147.368225 177.364410,144.323517 173.915176,142.067230 
	C157.492035,131.324249 136.992188,136.679489 127.885925,154.054062 
	C120.363525,168.406662 121.943420,183.422256 125.294510,198.439575 
	C125.490349,199.317200 127.448494,200.375305 128.592422,200.382294 
	C148.420578,200.503098 168.250092,200.523560 188.077499,200.354156 
	C189.346466,200.343323 191.503876,198.782349 191.726074,197.645111 
	C194.972305,181.031052 195.460648,164.787582 183.469009,150.049637 
M200.588318,635.615112 
	C200.615860,640.937622 200.555405,646.262512 200.697601,651.581909 
	C200.820923,656.195251 201.615616,660.742249 206.234192,663.061890 
	C210.686310,665.297852 215.047119,664.589417 218.963791,660.915039 
	C218.736221,669.370667 215.612823,670.458923 203.750717,666.443359 
	C202.422974,668.706299 201.053284,671.040649 199.629562,673.467102 
	C206.158707,678.353821 213.046646,678.529114 220.055420,677.368713 
	C228.168152,676.025391 231.922226,672.277039 232.145935,664.048889 
	C232.566116,648.594604 232.382614,633.123779 232.412567,617.659729 
	C232.413361,617.246338 231.982819,616.832092 231.518524,615.994446 
	C227.376175,617.940430 221.646942,612.961853 218.419434,619.543091 
	C215.585831,615.244690 211.440765,615.236023 207.282959,616.403625 
	C203.052780,617.591614 201.521088,621.222961 201.038925,625.194763 
	C200.659485,628.320496 200.722214,631.499939 200.588318,635.615112 
M312.902313,86.954567 
	C316.298035,86.007225 319.693726,85.059875 323.038971,84.126610 
	C323.006592,83.957642 323.242462,85.188644 323.446686,86.254410 
	C327.745148,86.254410 331.699341,86.254410 335.619446,86.254410 
	C335.619446,65.098679 335.619446,44.208466 335.619446,23.350170 
	C331.333038,23.350170 327.397797,23.350170 322.962677,23.350170 
	C322.962677,27.240080 322.962677,30.913446 322.962677,34.819187 
	C313.496735,29.814703 305.372162,32.914639 304.727875,42.395977 
	C303.918701,54.304264 304.576721,66.327950 304.937073,78.291725 
	C305.068390,82.651291 307.718964,85.662476 312.902313,86.954567 
M142.138367,669.951172 
	C142.102402,666.603210 142.293228,663.234680 141.992523,659.910645 
	C140.405838,642.371948 138.695282,624.844543 137.026962,607.305542 
	C129.750656,607.305542 122.846260,607.305542 115.638718,607.305542 
	C113.629707,628.213074 111.644653,648.871338 109.642868,669.703735 
	C113.974159,669.703735 117.870789,669.703735 121.742012,669.703735 
	C122.068092,666.317444 122.365334,663.230591 122.664444,660.124390 
	C125.368622,660.124390 127.645332,660.124390 130.073776,660.124390 
	C130.463776,663.428223 130.829147,666.523560 131.239716,670.001587 
	C134.604889,670.001587 137.905151,670.001587 142.138367,669.951172 
M186.813950,64.451332 
	C186.678802,58.135090 187.034332,51.760365 186.290222,45.516701 
	C185.248032,36.771858 178.653870,31.807096 169.891235,32.258476 
	C161.003265,32.716312 155.234451,38.133080 154.903152,47.064533 
	C154.582687,55.704063 154.596207,64.374977 154.926559,73.014374 
	C155.264969,81.864357 160.432281,86.639740 169.237259,86.999191 
	C180.543869,87.460770 185.976242,82.642220 186.728119,71.418304 
	C186.861389,69.429001 186.790482,67.426018 186.813950,64.451332 
M353.171967,45.970680 
	C354.157013,44.688183 355.142059,43.405685 356.127106,42.123161 
	C356.959290,43.425701 358.178528,44.627308 358.549530,46.050117 
	C359.575867,49.985950 358.341522,52.391838 353.910706,53.481468 
	C347.260956,55.116779 340.954803,57.939423 340.351074,66.018288 
	C340.009155,70.593948 340.457642,75.296150 341.121033,79.858345 
	C341.661896,83.577942 344.217712,86.084450 348.026947,86.837273 
	C351.706146,87.564400 354.977325,86.880020 357.223145,83.469597 
	C357.527649,83.007233 358.127502,82.739395 358.656097,82.330864 
	C358.885437,83.883942 359.070557,85.137512 359.222961,86.169556 
	C363.467102,86.169556 367.380280,86.169556 371.585449,86.169556 
	C371.585449,72.524216 371.802612,59.232033 371.511963,45.950962 
	C371.305389,36.512058 364.748688,31.498289 354.581512,32.293034 
	C344.159912,33.107666 340.248962,37.783154 341.244720,48.778042 
	C344.641754,48.778042 348.098633,48.866673 351.541931,48.690243 
	C352.111725,48.661053 352.622162,47.472866 353.171967,45.970680 
M283.340057,619.913269 
	C282.033691,623.691162 280.727325,627.469055 279.235046,631.784546 
	C284.554047,631.784546 288.601227,631.784546 292.654175,631.784546 
	C292.729370,630.960754 292.639404,630.407532 292.842316,630.000244 
	C293.571655,628.536865 294.399872,627.122803 295.190735,625.690063 
	C296.149780,627.171997 297.556305,628.537537 297.978333,630.159241 
	C298.975922,633.992126 297.330383,635.884399 293.308716,637.099304 
	C281.288879,640.730164 278.576355,645.181152 279.652557,657.660461 
	C279.724091,658.489624 279.804382,659.319214 279.919281,660.143188 
	C280.514740,664.414368 281.635071,668.423035 286.320862,669.941223 
	C290.900421,671.424988 294.811493,670.414673 297.858337,665.275208 
	C298.130066,667.390320 298.281433,668.568604 298.424194,669.679932 
	C302.763214,669.679932 306.826447,669.679932 311.013184,669.679932 
	C311.013184,655.881287 311.091644,642.406921 310.979187,628.934265 
	C310.925140,622.461548 307.645142,618.053040 301.440247,616.598877 
	C295.335205,615.168213 289.198212,615.109863 283.340057,619.913269 
M195.059723,625.754333 
	C192.335037,617.959595 187.994293,615.416748 178.310791,615.942444 
	C170.740204,616.353394 165.045822,620.214722 164.660324,627.234741 
	C164.060654,638.154663 164.490540,649.168091 165.143112,660.102600 
	C165.423828,664.806091 168.678909,668.281311 173.446991,669.753540 
	C187.826538,674.193359 198.397766,664.294189 195.093216,649.416870 
	C191.181427,649.416870 187.256683,649.416870 182.869034,649.416870 
	C182.869034,652.287781 183.141312,654.965088 182.743164,657.538635 
	C182.569061,658.664001 181.023758,659.577271 180.101135,660.586914 
	C179.125397,659.614075 177.382202,658.696594 177.307434,657.658813 
	C176.992004,653.280884 177.173935,648.867004 177.173935,644.177734 
	C183.555084,644.177734 189.348877,644.177734 195.199142,644.177734 
	C195.199142,638.107422 195.199142,632.339172 195.059723,625.754333 
M233.403488,76.969437 
	C232.165482,75.807518 230.008484,74.751549 229.860031,73.464005 
	C229.395691,69.436478 229.689468,65.321548 229.689468,60.832024 
	C235.892715,60.832024 241.811127,60.832024 248.000397,60.832024 
	C248.000397,55.126900 248.288971,49.816986 247.932556,44.550728 
	C247.402496,36.718407 242.055298,32.444275 233.195450,32.228848 
	C224.136292,32.008575 217.420181,36.609745 217.054138,44.314171 
	C216.581253,54.266830 216.586914,64.283791 217.142532,74.230843 
	C217.602219,82.459930 222.740997,86.710785 230.905594,87.007370 
	C243.956604,87.481445 250.305817,79.450844 247.513123,66.142242 
	C243.574982,66.142242 239.665085,66.142242 236.058365,66.142242 
	C235.393066,69.840858 234.790237,73.192184 233.403488,76.969437 
M109.359337,65.907021 
	C105.454659,65.907021 101.549980,65.907021 97.294273,65.907021 
	C97.294273,68.893745 97.599762,71.262047 97.177429,73.492531 
	C96.931854,74.789520 95.518700,75.865440 94.630905,77.040825 
	C93.663376,75.929161 91.961861,74.879677 91.861465,73.694557 
	C91.515388,69.609192 91.728310,65.476486 91.728310,60.798218 
	C97.825394,60.798218 103.878609,60.798218 110.014557,60.798218 
	C110.014557,55.084324 110.272598,49.918556 109.955193,44.788395 
	C109.456215,36.723633 103.979523,32.305836 94.942833,32.222599 
	C85.849991,32.138847 79.372116,36.761738 79.023598,44.557541 
	C78.586060,54.344837 78.726288,64.177368 79.088753,73.972931 
	C79.273117,78.955597 81.408493,83.370796 86.350052,85.632042 
	C98.607117,91.240868 109.552071,84.490120 110.050255,71.054932 
	C110.105637,69.561302 110.058044,68.063850 109.359337,65.907021 
M267.462677,76.877098 
	C261.996918,75.257324 265.548737,70.227112 263.563446,66.792702 
	C261.845612,66.792702 259.882874,66.792702 257.920135,66.792702 
	C255.833420,66.792702 253.746689,66.792702 251.204514,66.792702 
	C251.460327,70.152061 251.491669,72.796379 251.891220,75.383842 
	C253.001434,82.573326 257.628723,86.508270 265.279358,86.979713 
	C274.444611,87.544472 280.976562,83.986824 282.649750,76.949402 
	C284.360138,69.755333 283.417084,62.964352 277.425201,57.804192 
	C274.407623,55.205486 271.049957,53.003128 268.013092,50.424786 
	C266.687225,49.299099 265.255951,47.811539 264.861237,46.239994 
	C264.581787,45.127411 265.961914,43.597996 266.601227,42.254646 
	C267.620117,43.154991 268.932129,43.887508 269.571838,45.004932 
	C270.160614,46.033318 270.026306,47.475666 270.201477,48.673714 
	C274.591095,48.673714 278.700470,48.673714 282.793243,48.673714 
	C283.232819,39.980667 280.042175,34.761227 273.382935,33.021564 
	C264.970123,30.823790 256.135010,33.623283 252.968246,39.490162 
	C249.806412,45.347855 251.939301,53.649261 257.961273,58.645466 
	C260.904877,61.087673 264.061859,63.284325 266.900604,65.838455 
	C270.636658,69.199898 270.956726,72.733566 267.462677,76.877098 
M62.954884,60.495941 
	C62.954884,48.284866 62.954884,36.073792 62.954884,23.858036 
	C58.357651,23.858036 54.430790,23.858036 50.506126,23.858036 
	C50.506126,44.811481 50.506126,65.478432 50.506126,86.275116 
	C59.082146,86.275116 67.326782,86.275116 75.711586,86.275116 
	C75.711586,82.768486 75.711586,79.524803 75.711586,75.817062 
	C71.438965,75.817062 67.369438,75.817062 62.954762,75.817062 
	C62.954762,70.736435 62.954762,66.115234 62.954884,60.495941 
M135.160339,60.502453 
	C135.169250,66.491104 135.089615,72.481651 135.217728,78.467751 
	C135.305374,82.562561 136.451309,86.280190 141.268845,86.835068 
	C144.473404,87.204170 147.754929,86.905106 151.985870,86.905106 
	C151.242477,82.937218 150.901505,80.146538 150.145203,77.473366 
	C149.742630,76.050438 147.964249,74.847137 147.931290,73.516861 
	C147.721222,65.037964 147.739410,56.549450 147.924881,48.069401 
	C147.949829,46.929443 149.869843,45.873890 149.991806,44.684826 
	C150.320923,41.476494 150.376953,38.195946 150.072922,34.988453 
	C149.949936,33.690830 148.134995,32.582607 147.928482,31.257521 
	C147.558792,28.885393 147.824295,26.414276 147.824295,23.852673 
	C143.336548,23.852673 139.413330,23.852673 135.765045,23.852673 
	C133.376129,27.704254 138.574997,33.601170 131.460266,35.792831 
	C131.784164,38.640022 131.293976,43.519772 132.602417,44.062374 
	C136.138794,45.528915 135.019745,47.860912 135.122009,50.023357 
	C135.271149,53.177044 135.160217,56.343033 135.160339,60.502453 
M146.645294,668.927795 
	C150.855682,669.414307 155.066071,669.900879 159.458771,670.408508 
	C159.458771,648.693665 159.458771,627.973206 159.458771,607.007690 
	C155.145523,607.007690 151.067062,607.007690 146.597931,607.007690 
	C146.597931,627.471191 146.597931,647.739624 146.645294,668.927795 
M193.854736,32.918018 
	C193.105576,33.699593 191.859207,34.396656 191.709061,35.280037 
	C191.379501,37.218960 191.603714,39.252182 191.603683,41.246906 
	C191.603378,56.165901 191.603516,71.084892 191.603516,86.256813 
	C195.969559,86.256813 199.876709,86.256813 204.324417,86.256813 
	C204.324417,75.345352 204.323654,64.589699 204.324646,53.834042 
	C204.325531,44.288185 204.326401,44.288185 213.342499,42.545185 
	C213.342499,39.172283 213.342499,35.799145 213.342499,31.330257 
	C209.990448,33.144489 207.378983,34.557888 205.895920,35.360569 
	C203.751953,34.339306 202.320755,33.293652 200.749619,33.002041 
	C198.821304,32.644131 196.776001,32.916401 193.854736,32.918018 
M237.027451,626.539124 
	C237.027451,640.935242 237.027451,655.331421 237.027451,669.698853 
	C241.616837,669.698853 245.669174,669.698853 249.944901,669.698853 
	C249.944901,658.447449 249.945023,647.502380 249.944855,636.557312 
	C249.944717,628.018372 249.945496,628.022888 258.185669,626.322815 
	C258.453033,626.267639 258.659088,625.915283 258.760803,625.822571 
	C258.760803,622.460999 258.760803,619.233887 258.760803,614.674866 
	C255.278122,616.755188 252.619965,618.343018 250.107468,619.843811 
	C249.975418,618.966064 249.786545,617.710571 249.605164,616.504883 
	C245.374573,616.504883 241.437592,616.504883 237.027420,616.504883 
	C237.027420,619.669434 237.027420,622.612976 237.027451,626.539124 
M262.447510,660.438843 
	C262.447510,663.553406 262.447510,666.667969 262.447510,669.879150 
	C266.959381,669.879150 270.924988,669.879150 275.006165,669.879150 
	C275.006165,652.018250 275.006165,634.297058 275.006165,616.491455 
	C270.833740,616.491455 266.914246,616.491455 262.447510,616.491455 
	C262.447510,630.965027 262.447510,645.211060 262.447510,660.438843 
M127.895309,54.500160 
	C127.895309,47.410702 127.895309,40.321247 127.895309,33.211422 
	C123.306541,33.211422 119.259323,33.211422 115.225113,33.211422 
	C115.225113,51.046139 115.225113,68.581741 115.225113,86.197662 
	C119.533424,86.197662 123.602432,86.197662 127.895294,86.197662 
	C127.895294,75.753044 127.895294,65.626564 127.895309,54.500160 
M189.121780,242.394089 
	C204.804306,250.506683 220.434326,249.877228 235.214661,242.236008 
	C237.171448,243.127762 238.506973,243.736374 239.842499,244.344986 
	C239.757019,242.893982 239.812180,241.416855 239.548843,239.998886 
	C239.249176,238.385193 238.789688,236.772171 238.156967,235.260437 
	C237.789734,234.383041 236.945557,233.705246 236.316025,232.937637 
	C235.785995,233.648224 234.708588,234.457840 234.816269,235.053055 
	C235.434097,238.467972 233.075485,239.257065 230.721558,240.209106 
	C219.304153,244.826889 207.737793,245.146469 196.061279,241.358444 
	C192.572998,240.226822 188.368225,239.592026 189.707977,234.081558 
	C185.702591,235.269516 183.457153,239.955261 184.773056,244.144592 
	C186.034058,243.449677 187.236832,242.786850 189.121780,242.394089 
M265.746155,603.872498 
	C258.610352,604.769775 264.283936,609.735596 262.167603,612.690552 
	C266.926208,612.690552 270.847321,612.690552 274.925964,612.690552 
	C274.925964,609.772583 274.925964,606.918884 274.925964,603.872437 
	C271.946442,603.872437 269.306976,603.872437 265.746155,603.872498 
M116.829384,20.226221 
	C115.976532,23.001354 115.123680,25.776485 114.154793,28.929192 
	C119.468636,28.929192 123.521950,28.929192 127.548615,28.929192 
	C127.548615,25.917624 127.548615,23.210199 127.548615,20.219532 
	C124.045525,20.219532 120.903625,20.219532 116.829384,20.226221 
M212.783035,224.773148 
	C212.211365,223.595459 211.933395,222.066055 211.017151,221.300980 
	C207.061066,217.997559 206.290619,214.386566 209.187897,210.022751 
	C209.661194,209.309875 209.725204,208.325287 210.004349,207.378159 
	C206.130096,207.243759 204.374115,209.198608 203.859818,213.787567 
	C203.234940,219.363266 206.547287,223.877914 212.783035,224.773148 
M167.887924,220.282196 
	C167.025894,220.173019 165.487076,219.788727 165.402908,219.995758 
	C164.056671,223.307495 162.834244,226.675491 161.773666,230.089722 
	C161.644714,230.504913 162.723160,231.815033 163.053574,231.750183 
	C163.864426,231.591019 164.994141,231.025269 165.236664,230.350372 
	C166.337921,227.285660 167.176651,224.126602 167.887924,220.282196 
M155.074249,228.199387 
	C156.100418,228.165298 157.894699,228.419342 158.032486,228.052017 
	C159.245850,224.817093 160.255203,221.494141 161.088638,218.138550 
	C161.242691,217.518265 160.333725,216.633942 159.915390,215.871490 
	C159.173813,216.386887 157.996506,216.755371 157.764771,217.442673 
	C156.663345,220.709259 155.819427,224.062683 155.074249,228.199387 
M259.784912,219.826752 
	C260.678223,223.656891 261.571564,227.487030 262.464874,231.317184 
	C263.451569,230.964966 264.438232,230.612747 265.424927,230.260513 
	C263.761719,226.680206 262.098480,223.099899 259.784912,219.826752 
M266.529266,216.086502 
	C267.364685,220.151855 268.161499,224.226105 269.095276,228.268738 
	C269.188599,228.672699 270.279114,229.255493 270.617554,229.104950 
	C271.242523,228.826935 272.192993,227.862946 272.070557,227.538239 
	C270.582397,223.592377 268.923187,219.711075 266.529266,216.086502 
M274.308105,216.642670 
	C274.992676,219.337418 275.533875,222.082520 276.452057,224.695160 
	C276.715942,225.446045 278.067535,225.814651 278.920441,226.358521 
	C279.278137,225.534653 280.058167,224.628967 279.917267,223.901688 
	C279.420990,221.339874 278.777954,218.768982 277.782288,216.371063 
	C277.566986,215.852585 275.651581,216.040039 274.308105,216.642670 
M150.347961,225.547592 
	C151.129211,222.875473 152.022644,220.227905 152.615967,217.514679 
	C152.771942,216.801422 151.998825,215.884964 151.652374,215.061813 
	C150.850357,215.431763 149.541504,215.620621 149.333466,216.202835 
	C148.399353,218.816986 147.632721,221.519196 147.186859,224.251846 
	C147.112305,224.708649 148.920471,225.472672 150.347961,225.547592 
z"/>
<path fill="#190C0D" opacity="1.000000" stroke="none" 
	d="
M357.834045,499.727295 
	C367.297791,496.620728 376.736481,493.434052 386.242523,490.462708 
	C388.685486,489.699097 389.646484,488.650330 389.644928,485.959747 
	C389.618378,439.490051 389.702545,393.020325 389.751282,346.550598 
	C389.751587,346.240112 389.594757,345.929443 389.382751,345.140564 
	C385.240723,345.495605 381.014465,345.857880 376.062988,346.282318 
	C376.062988,348.100159 376.068695,349.860535 376.062134,351.620850 
	C375.909393,392.593903 375.750946,433.566925 375.614532,474.540009 
	C375.607910,476.528381 375.792633,478.517365 375.246887,480.794312 
	C374.068878,481.401825 373.532227,481.721161 372.995544,482.040466 
	C350.437744,488.758301 327.879913,495.476105 304.660950,502.179840 
	C303.674438,502.361298 303.349060,502.556885 303.023682,502.752472 
	C276.877045,510.509369 250.731400,518.269775 224.577072,526.000671 
	C223.975082,526.178650 223.274490,526.023071 221.986847,526.023071 
	C221.824524,524.302246 221.511368,522.588867 221.523254,520.877686 
	C222.057449,444.068970 222.654358,367.260620 223.085861,290.451355 
	C223.109207,286.294098 224.336502,283.902863 227.944153,281.748657 
	C275.392395,253.416245 322.744812,224.923340 370.133789,196.491562 
	C371.809479,195.486191 373.615021,194.697266 376.251404,193.352982 
	C376.251404,243.450668 376.251404,292.705811 376.251404,342.433350 
	C378.676910,342.286987 380.930603,342.173401 383.180573,342.008728 
	C385.315704,341.852448 387.446960,341.642731 390.160278,341.405853 
	C390.160278,339.342651 390.140472,337.567871 390.163177,335.793579 
	C390.741211,290.642975 391.305359,245.492142 391.962891,200.342697 
	C391.993866,198.214523 390.592255,194.001694 395.888092,196.884796 
	C395.773804,199.140640 395.510101,200.703812 395.247314,202.583466 
	C395.228271,203.535843 395.208282,204.171768 395.113647,205.200912 
	C395.085541,206.123703 395.132019,206.653275 395.202026,207.458069 
	C395.202881,208.100449 395.180176,208.467606 395.082031,209.207748 
	C395.032227,210.085587 395.057861,210.590424 395.095093,211.557861 
	C394.442841,259.481689 393.555664,306.941132 393.181244,354.404663 
	C392.842133,397.395477 393.092712,440.390747 393.013184,483.383942 
	C392.994537,493.464630 394.587341,491.494568 384.861237,494.613586 
	C332.247467,511.486298 279.642456,528.402771 226.778091,544.460449 
	C218.380081,547.011353 208.381836,546.840454 199.650024,545.171936 
	C185.161819,542.403564 171.105957,537.381104 156.859161,533.339294 
	C117.803345,522.259094 78.751610,511.164368 39.676723,500.151764 
	C32.341530,498.084442 32.135700,498.087067 32.091423,490.383728 
	C31.811804,441.738983 31.495749,393.094360 31.295494,344.449280 
	C31.107533,298.790375 31.051073,253.130920 30.919605,207.471771 
	C30.914221,205.602142 30.733809,203.733017 30.546352,200.188614 
	C25.747185,204.112869 22.203590,207.010437 18.284933,209.937531 
	C17.158909,210.012268 16.407946,210.057465 15.656981,210.102661 
	C15.553530,209.792099 15.450079,209.481537 15.588128,208.524597 
	C15.870422,207.587326 15.911219,207.296432 15.952016,207.005554 
	C21.621073,202.784012 27.290129,198.562469 32.959183,194.340927 
	C33.431118,194.544418 33.903049,194.747910 34.374985,194.951401 
	C34.374985,243.557495 34.374985,292.163574 34.374985,341.149231 
	C40.377674,341.664032 45.438332,342.098022 50.548676,342.536285 
	C50.548676,292.984741 50.548676,243.792938 50.548676,193.661011 
	C52.955265,194.675919 54.790077,195.204178 56.372890,196.152878 
	C104.056030,224.732574 151.712997,253.355942 199.380051,281.962463 
	C201.993530,283.530914 203.917389,285.020294 203.939880,288.797302 
	C204.405350,366.933777 205.050705,445.069153 205.402252,523.826904 
	C205.019989,524.714294 204.973129,524.992493 205.003448,525.283630 
	C203.508881,525.328796 201.900879,525.761780 200.536285,525.362671 
	C163.897736,514.646912 127.284157,503.845734 90.123619,492.694611 
	C89.232178,492.274384 88.883484,492.218567 88.534790,492.162720 
	C76.905647,488.858398 65.247879,485.647125 53.695030,482.094666 
	C52.629734,481.767059 51.618923,479.266815 51.615147,477.772858 
	C51.504818,434.125763 51.525845,390.478333 51.525845,346.431244 
	C45.702175,345.858368 40.631264,345.359528 35.137535,344.819122 
	C35.137535,347.072662 35.130211,349.027496 35.138607,350.982269 
	C35.334030,396.478638 35.531704,441.975006 35.727455,487.471375 
	C35.760883,495.241638 35.781261,495.157928 43.137497,497.227509 
	C56.751904,501.057709 70.332924,505.006439 83.932945,508.887939 
	C116.408752,518.156616 148.887512,527.414978 181.932648,537.107727 
	C182.939819,537.555054 183.379471,537.572144 183.819107,537.589233 
	C186.239334,538.162231 188.722687,538.547913 191.069458,539.338867 
	C205.483688,544.196960 219.741913,543.396423 234.081543,538.807983 
	C274.776154,525.786621 315.520813,512.921692 356.776398,499.985413 
	C357.502014,499.933868 357.677673,499.851074 357.834045,499.727295 
M53.900951,221.500076 
	C53.900951,261.776428 53.900951,302.052765 53.900951,342.114624 
	C55.765705,342.649719 56.378685,342.933716 57.012405,342.991943 
	C86.333954,345.685425 115.709511,347.910370 144.948441,351.310638 
	C153.635544,352.320923 159.558456,349.534729 165.346985,344.239227 
	C166.448792,343.231232 167.593307,342.150970 168.919861,341.547455 
	C169.884918,341.108368 171.182129,341.399261 172.331238,341.364716 
	C171.951385,342.352142 171.836853,343.621277 171.142715,344.274963 
	C168.921249,346.366974 166.485001,348.230896 162.961426,351.153503 
	C167.616364,351.153503 170.708771,351.027740 173.779846,351.228394 
	C174.729813,351.290436 175.621735,352.240631 176.540253,352.784241 
	C175.632889,353.508789 174.776886,354.764374 173.808472,354.858032 
	C170.930099,355.136505 168.007492,354.957855 165.102173,354.957855 
	C164.972504,355.439545 164.842834,355.921265 164.713165,356.402954 
	C166.010559,357.545349 167.457367,358.561310 168.561966,359.866821 
	C169.598450,361.091827 170.273056,362.623016 171.106903,364.019470 
	C169.557281,363.649506 167.823044,363.604279 166.492981,362.848114 
	C162.643982,360.659912 159.227997,357.065094 155.145477,356.079712 
	C148.585953,354.496460 141.628479,354.558380 134.838257,353.935120 
	C113.958694,352.018646 93.080902,350.082489 72.197456,348.209412 
	C66.497559,347.698212 60.780148,347.382263 55.055260,346.975616 
	C55.055260,391.587189 55.055260,435.371307 55.055260,479.012421 
	C104.090881,493.374084 152.787323,507.636414 202.028625,522.058350 
	C202.028625,519.692200 202.045486,518.050537 202.026093,516.409180 
	C201.785950,496.092407 201.468491,475.776276 201.310349,455.458862 
	C200.886368,400.983337 200.500214,346.507416 200.210312,292.031067 
	C200.189880,288.188904 199.165329,285.886566 195.612961,283.768829 
	C149.421036,256.231903 103.358566,228.477859 57.249592,200.801651 
	C56.364151,200.270187 55.310177,200.019470 53.902203,199.468460 
	C53.902203,206.858215 53.902203,213.679214 53.900951,221.500076 
M292.437622,350.064484 
	C317.454437,347.783752 342.460815,345.373993 367.497894,343.343201 
	C371.921326,342.984436 372.929871,341.515167 372.926483,337.325897 
	C372.890533,292.838257 373.054993,248.350510 373.139679,203.862747 
	C373.142029,202.624756 372.870728,201.386246 372.617279,199.202225 
	C366.615936,202.842926 361.283112,206.109344 355.920593,209.326309 
	C314.092438,234.418915 272.273010,259.526215 230.389725,284.526550 
	C227.941010,285.988190 226.948120,287.511292 226.928207,290.374695 
	C226.740631,317.356049 226.340332,344.335938 226.138092,371.317261 
	C225.933304,398.641937 225.939575,425.968170 225.747269,453.292999 
	C225.600739,474.113495 225.286850,494.932800 225.052231,515.752686 
	C225.032547,517.500427 225.049622,519.248535 225.049622,521.633362 
	C227.633743,521.076660 229.407089,520.811523 231.111084,520.310486 
	C276.451050,506.979340 321.770294,493.577271 367.143463,480.360352 
	C370.806519,479.293304 372.100739,477.814148 372.097107,473.922455 
	C372.059296,433.100098 372.225800,392.277557 372.312012,351.455017 
	C372.315002,350.039154 372.068604,348.622742 371.929565,347.110504 
	C369.761414,347.110504 368.099884,346.982635 366.462982,347.129639 
	C340.937347,349.422180 315.414459,351.745544 289.891907,354.072418 
	C278.895996,355.074921 267.452637,354.654358 259.075867,363.965759 
	C258.598022,364.496948 257.099792,364.110168 256.076447,364.150604 
	C256.332855,363.125031 256.262543,361.760895 256.907776,361.138184 
	C258.750519,359.359802 260.884155,357.882843 262.903351,356.287292 
	C262.783539,355.847717 262.663727,355.408112 262.543884,354.968536 
	C259.634216,354.968536 256.704010,355.167694 253.824936,354.870758 
	C252.670227,354.751648 251.628036,353.541595 250.534637,352.828094 
	C251.603043,352.266602 252.640137,351.307800 253.745895,351.220734 
	C256.647491,350.992188 259.579041,351.143555 264.071594,351.143555 
	C261.474335,348.971619 259.875488,347.894043 258.612488,346.509979 
	C257.171875,344.931274 256.030548,343.079437 254.759140,341.346313 
	C256.826782,342.087585 259.389709,342.292023 260.876129,343.663330 
	C267.236908,349.531403 273.981964,353.465515 283.094086,351.058258 
	C285.795776,350.344543 288.701691,350.404083 292.437622,350.064484 
z"/>
<path fill="#4B181C" opacity="1.000000" stroke="none" 
	d="
M15.512535,210.479218 
	C16.407946,210.057465 17.158909,210.012268 18.390520,210.404022 
	C19.193106,246.641525 19.670752,282.441498 19.802084,318.242767 
	C20.023331,378.554016 20.047821,438.866028 20.065096,499.177765 
	C20.066204,503.049622 20.613346,505.636505 25.025494,506.898743 
	C44.036453,512.337524 62.948322,518.122314 81.900009,523.768616 
	C119.651321,535.015991 157.354340,546.430237 195.189911,557.386841 
	C206.013336,560.521179 217.300735,560.384277 228.137024,557.006409 
	C255.117630,548.596008 281.978210,539.801270 308.912140,531.240112 
	C340.129089,521.317566 371.349701,511.404816 402.632599,501.693573 
	C406.823303,500.392670 408.294830,498.527344 408.233704,494.046722 
	C407.724609,456.748932 407.467346,419.447571 407.156738,382.147125 
	C406.800323,339.349091 406.446564,296.550964 406.136017,253.752563 
	C406.038086,240.258041 406.099121,226.762405 406.054443,213.267410 
	C406.035797,207.633362 401.245544,202.801193 395.246399,202.266998 
	C395.510101,200.703812 395.773804,199.140640 396.069702,197.172928 
	C400.085968,199.757507 404.249023,202.546097 407.950592,205.851471 
	C409.141998,206.915344 409.565399,209.336533 409.582825,211.144073 
	C409.902405,244.306183 410.075714,277.469635 410.342224,310.632294 
	C410.840515,372.627899 411.331635,434.623688 412.002869,496.617493 
	C412.049072,500.886292 410.724243,502.782562 406.730621,504.044586 
	C346.124695,523.196716 285.645325,542.757751 224.882004,561.393677 
	C216.714966,563.898499 206.563751,563.986755 198.349838,561.635620 
	C139.965790,544.924561 81.857750,527.250427 23.623663,510.011841 
	C18.711819,508.557831 16.731924,506.473480 16.715824,500.841980 
	C16.439468,404.179413 15.871798,307.517700 15.512535,210.479218 
z"/>
<path fill="#19181B" opacity="1.000000" stroke="none" 
	d="
M225.880554,169.795776 
	C228.030502,156.145081 232.748917,144.533203 245.977295,138.700287 
	C262.439819,131.441299 281.519073,138.917816 290.993927,155.751968 
	C298.528534,169.138824 298.314087,183.076981 294.650421,197.328583 
	C294.379883,198.380875 292.376373,199.686249 291.169891,199.695099 
	C271.373993,199.840378 251.576035,199.858414 231.781174,199.652512 
	C230.470032,199.638870 228.178757,197.708130 228.040771,196.478592 
	C227.062042,187.758194 226.526321,178.988098 225.880554,169.795776 
M273.372955,172.075577 
	C267.635071,170.861008 263.629181,167.559830 262.409210,161.782394 
	C260.764282,153.992508 264.856750,148.888397 271.488037,145.314392 
	C260.416626,137.943222 244.455505,141.928680 237.401199,153.579544 
	C230.207581,165.460571 230.449646,178.295547 232.986649,191.298187 
	C233.202896,192.406601 235.396271,193.897980 236.685120,193.911804 
	C253.157974,194.088577 269.633636,194.066620 286.107544,193.946457 
	C287.288391,193.937851 289.334595,192.946304 289.502472,192.114090 
	C291.244720,183.475586 292.423401,174.785339 288.764496,165.810120 
	C284.632904,170.200806 280.157043,173.123367 273.372955,172.075577 
z"/>
<path fill="#151416" opacity="1.000000" stroke="none" 
	d="
M183.696533,150.321899 
	C195.460648,164.787582 194.972305,181.031052 191.726074,197.645111 
	C191.503876,198.782349 189.346466,200.343323 188.077499,200.354156 
	C168.250092,200.523560 148.420578,200.503098 128.592422,200.382294 
	C127.448494,200.375305 125.490349,199.317200 125.294510,198.439575 
	C121.943420,183.422256 120.363525,168.406662 127.885925,154.054062 
	C136.992188,136.679489 157.492035,131.324249 173.915176,142.067230 
	C177.364410,144.323517 180.297882,147.368225 183.696533,150.321899 
M159.098267,160.307724 
	C158.735306,153.300583 162.996201,149.132355 168.759384,145.845245 
	C155.558243,138.669098 140.806564,142.903168 133.793701,155.341583 
	C127.165535,167.097672 127.484138,179.588821 129.989273,192.245346 
	C130.194138,193.280334 132.165161,194.691208 133.327057,194.702133 
	C149.982040,194.858841 166.639160,194.834595 183.295044,194.733490 
	C184.389374,194.726822 186.292450,193.916367 186.444916,193.190948 
	C188.286209,184.429657 189.500992,175.627731 185.884232,166.792023 
	C173.556778,176.877594 162.459183,174.395706 159.098267,160.307724 
z"/>
<path fill="#090909" opacity="1.000000" stroke="none" 
	d="
M200.588425,635.135315 
	C200.722214,631.499939 200.659485,628.320496 201.038925,625.194763 
	C201.521088,621.222961 203.052780,617.591614 207.282959,616.403625 
	C211.440765,615.236023 215.585831,615.244690 218.419434,619.543091 
	C221.646942,612.961853 227.376175,617.940430 231.518524,615.994446 
	C231.982819,616.832092 232.413361,617.246338 232.412567,617.659729 
	C232.382614,633.123779 232.566116,648.594604 232.145935,664.048889 
	C231.922226,672.277039 228.168152,676.025391 220.055420,677.368713 
	C213.046646,678.529114 206.158707,678.353821 199.629562,673.467102 
	C201.053284,671.040649 202.422974,668.706299 203.750717,666.443359 
	C215.612823,670.458923 218.736221,669.370667 218.963791,660.915039 
	C215.047119,664.589417 210.686310,665.297852 206.234192,663.061890 
	C201.615616,660.742249 200.820923,656.195251 200.697601,651.581909 
	C200.555405,646.262512 200.615860,640.937622 200.588425,635.135315 
M217.455185,654.203491 
	C217.900604,653.729797 218.724701,653.264221 218.734985,652.781250 
	C218.907150,644.694885 219.075806,636.604614 218.938446,628.520447 
	C218.922440,627.578430 217.089172,626.667358 216.098389,625.741882 
	C215.261505,626.776855 213.725998,627.794495 213.699921,628.849487 
	C213.516190,636.285278 213.519104,643.733398 213.800873,651.164734 
	C213.844299,652.309998 215.624710,653.389465 217.455185,654.203491 
z"/>
<path fill="#050505" opacity="1.000000" stroke="none" 
	d="
M312.502441,86.899734 
	C307.718964,85.662476 305.068390,82.651291 304.937073,78.291725 
	C304.576721,66.327950 303.918701,54.304264 304.727875,42.395977 
	C305.372162,32.914639 313.496735,29.814703 322.962677,34.819187 
	C322.962677,30.913446 322.962677,27.240080 322.962677,23.350170 
	C327.397797,23.350170 331.333038,23.350170 335.619446,23.350170 
	C335.619446,44.208466 335.619446,65.098679 335.619446,86.254410 
	C331.699341,86.254410 327.745148,86.254410 323.446686,86.254410 
	C323.242462,85.188644 323.006592,83.957642 323.038971,84.126610 
	C319.693726,85.059875 316.298035,86.007225 312.502441,86.899734 
M318.193878,43.047436 
	C317.932312,43.469883 317.447296,43.889515 317.441925,44.315186 
	C317.319031,54.073521 317.147675,63.834118 317.303497,73.589218 
	C317.321686,74.727531 319.201447,75.836113 320.218201,76.958473 
	C321.133545,75.575516 322.800964,74.214172 322.841431,72.806061 
	C323.093811,64.029190 323.072235,55.240383 322.929688,46.458965 
	C322.892609,44.174301 322.449371,41.531494 318.193878,43.047436 
z"/>
<path fill="#050505" opacity="1.000000" stroke="none" 
	d="
M141.671890,669.976379 
	C137.905151,670.001587 134.604889,670.001587 131.239716,670.001587 
	C130.829147,666.523560 130.463776,663.428223 130.073776,660.124390 
	C127.645332,660.124390 125.368622,660.124390 122.664444,660.124390 
	C122.365334,663.230591 122.068092,666.317444 121.742012,669.703735 
	C117.870789,669.703735 113.974159,669.703735 109.642868,669.703735 
	C111.644653,648.871338 113.629707,628.213074 115.638718,607.305542 
	C122.846260,607.305542 129.750656,607.305542 137.026962,607.305542 
	C138.695282,624.844543 140.405838,642.371948 141.992523,659.910645 
	C142.293228,663.234680 142.102402,666.603210 141.671890,669.976379 
M124.293503,637.825867 
	C124.107040,641.735168 123.920578,645.644470 123.734268,649.550659 
	C125.822151,649.550659 127.367760,649.550659 129.331024,649.550659 
	C128.441467,640.444397 127.589081,631.718689 126.736694,622.992981 
	C126.255157,623.038757 125.773621,623.084534 125.292076,623.130371 
	C124.992592,627.717834 124.693100,632.305359 124.293503,637.825867 
z"/>
<path fill="#060606" opacity="1.000000" stroke="none" 
	d="
M186.813904,64.940338 
	C186.790482,67.426018 186.861389,69.429001 186.728119,71.418304 
	C185.976242,82.642220 180.543869,87.460770 169.237259,86.999191 
	C160.432281,86.639740 155.264969,81.864357 154.926559,73.014374 
	C154.596207,64.374977 154.582687,55.704063 154.903152,47.064533 
	C155.234451,38.133080 161.003265,32.716312 169.891235,32.258476 
	C178.653870,31.807096 185.248032,36.771858 186.290222,45.516701 
	C187.034332,51.760365 186.678802,58.135090 186.813904,64.940338 
M173.577835,45.424419 
	C172.367615,44.390388 171.157410,43.356358 169.947174,42.322323 
	C169.225754,43.682026 167.913925,45.026947 167.879456,46.403854 
	C167.667633,54.865177 167.691589,63.334171 167.761566,71.799583 
	C167.779602,73.980217 167.277008,77.240364 170.702545,76.794739 
	C171.931061,76.634926 173.582153,73.495522 173.644958,71.668045 
	C173.935516,63.212925 173.735062,54.740929 173.577835,45.424419 
z"/>
<path fill="#090909" opacity="1.000000" stroke="none" 
	d="
M353.166016,46.395477 
	C352.622162,47.472866 352.111725,48.661053 351.541931,48.690243 
	C348.098633,48.866673 344.641754,48.778042 341.244720,48.778042 
	C340.248962,37.783154 344.159912,33.107666 354.581512,32.293034 
	C364.748688,31.498289 371.305389,36.512058 371.511963,45.950962 
	C371.802612,59.232033 371.585449,72.524216 371.585449,86.169556 
	C367.380280,86.169556 363.467102,86.169556 359.222961,86.169556 
	C359.070557,85.137512 358.885437,83.883942 358.656097,82.330864 
	C358.127502,82.739395 357.527649,83.007233 357.223145,83.469597 
	C354.977325,86.880020 351.706146,87.564400 348.026947,86.837273 
	C344.217712,86.084450 341.661896,83.577942 341.121033,79.858345 
	C340.457642,75.296150 340.009155,70.593948 340.351074,66.018288 
	C340.954803,57.939423 347.260956,55.116779 353.910706,53.481468 
	C358.341522,52.391838 359.575867,49.985950 358.549530,46.050117 
	C358.178528,44.627308 356.959290,43.425701 356.127106,42.123177 
	C355.142059,43.405685 354.157013,44.688183 353.166016,46.395477 
M354.170227,61.135544 
	C353.800934,65.359497 353.246490,69.581070 353.192322,73.809067 
	C353.178741,74.868599 354.773041,75.948730 355.628387,77.019394 
	C356.598694,75.906593 358.333588,74.841530 358.406586,73.672699 
	C358.718292,68.680153 358.539276,63.656960 358.539276,57.810535 
	C356.745575,59.082691 355.714478,59.814003 354.170227,61.135544 
z"/>
<path fill="#050505" opacity="1.000000" stroke="none" 
	d="
M283.603882,619.636475 
	C289.198212,615.109863 295.335205,615.168213 301.440247,616.598877 
	C307.645142,618.053040 310.925140,622.461548 310.979187,628.934265 
	C311.091644,642.406921 311.013184,655.881287 311.013184,669.679932 
	C306.826447,669.679932 302.763214,669.679932 298.424194,669.679932 
	C298.281433,668.568604 298.130066,667.390320 297.858337,665.275208 
	C294.811493,670.414673 290.900421,671.424988 286.320862,669.941223 
	C281.635071,668.423035 280.514740,664.414368 279.919281,660.143188 
	C279.804382,659.319214 279.724091,658.489624 279.652557,657.660461 
	C278.576355,645.181152 281.288879,640.730164 293.308716,637.099304 
	C297.330383,635.884399 298.975922,633.992126 297.978333,630.159241 
	C297.556305,628.537537 296.149780,627.171997 295.190735,625.690063 
	C294.399872,627.122803 293.571655,628.536865 292.842316,630.000244 
	C292.639404,630.407532 292.729370,630.960754 292.654175,631.784546 
	C288.601227,631.784546 284.554047,631.784546 279.235046,631.784546 
	C280.727325,627.469055 282.033691,623.691162 283.603882,619.636475 
M295.552460,642.888550 
	C290.800446,646.934021 292.768799,652.336426 292.838043,657.273987 
	C292.853149,658.350220 294.402069,659.405029 295.244507,660.469727 
	C296.165314,659.306824 297.790100,658.196045 297.880737,656.971741 
	C298.209930,652.526062 298.071381,648.041199 297.956329,643.575073 
	C297.945831,643.167542 296.843292,642.788208 295.552460,642.888550 
z"/>
<path fill="#060606" opacity="1.000000" stroke="none" 
	d="
M195.129425,626.162598 
	C195.199142,632.339172 195.199142,638.107422 195.199142,644.177734 
	C189.348877,644.177734 183.555084,644.177734 177.173935,644.177734 
	C177.173935,648.867004 176.992004,653.280884 177.307434,657.658813 
	C177.382202,658.696594 179.125397,659.614075 180.101135,660.586914 
	C181.023758,659.577271 182.569061,658.664001 182.743164,657.538635 
	C183.141312,654.965088 182.869034,652.287781 182.869034,649.416870 
	C187.256683,649.416870 191.181427,649.416870 195.093216,649.416870 
	C198.397766,664.294189 187.826538,674.193359 173.446991,669.753540 
	C168.678909,668.281311 165.423828,664.806091 165.143112,660.102600 
	C164.490540,649.168091 164.060654,638.154663 164.660324,627.234741 
	C165.045822,620.214722 170.740204,616.353394 178.310791,615.942444 
	C187.994293,615.416748 192.335037,617.959595 195.129425,626.162598 
M182.886368,629.214600 
	C181.846329,627.959595 180.806290,626.704590 179.766266,625.449585 
	C178.841949,626.842590 177.360687,628.144775 177.115692,629.648499 
	C176.680084,632.322083 176.993317,635.117676 176.993317,638.058167 
	C179.289200,637.954163 181.027512,637.875488 182.938965,637.788940 
	C182.938965,634.980042 182.938965,632.521179 182.886368,629.214600 
z"/>
<path fill="#060606" opacity="1.000000" stroke="none" 
	d="
M233.795441,76.756470 
	C234.790237,73.192184 235.393066,69.840858 236.058365,66.142242 
	C239.665085,66.142242 243.574982,66.142242 247.513123,66.142242 
	C250.305817,79.450844 243.956604,87.481445 230.905594,87.007370 
	C222.740997,86.710785 217.602219,82.459930 217.142532,74.230843 
	C216.586914,64.283791 216.581253,54.266830 217.054138,44.314171 
	C217.420181,36.609745 224.136292,32.008575 233.195450,32.228848 
	C242.055298,32.444275 247.402496,36.718407 247.932556,44.550728 
	C248.288971,49.816986 248.000397,55.126900 248.000397,60.832024 
	C241.811127,60.832024 235.892715,60.832024 229.689468,60.832024 
	C229.689468,65.321548 229.395691,69.436478 229.860031,73.464005 
	C230.008484,74.751549 232.165482,75.807518 233.795441,76.756470 
M233.226730,54.491650 
	C233.969025,53.525524 235.405167,52.499798 235.328217,51.604042 
	C235.058380,48.462254 234.298798,45.357712 233.561142,42.278320 
	C233.531326,42.153847 231.102448,42.254906 231.035172,42.542179 
	C230.305176,45.659336 229.597031,48.823437 229.437683,52.002529 
	C229.398636,52.781422 231.376495,53.661415 233.226730,54.491650 
z"/>
<path fill="#060606" opacity="1.000000" stroke="none" 
	d="
M109.708771,66.237595 
	C110.058044,68.063850 110.105637,69.561302 110.050255,71.054932 
	C109.552071,84.490120 98.607117,91.240868 86.350052,85.632042 
	C81.408493,83.370796 79.273117,78.955597 79.088753,73.972931 
	C78.726288,64.177368 78.586060,54.344837 79.023598,44.557541 
	C79.372116,36.761738 85.849991,32.138847 94.942833,32.222599 
	C103.979523,32.305836 109.456215,36.723633 109.955193,44.788395 
	C110.272598,49.918556 110.014557,55.084324 110.014557,60.798218 
	C103.878609,60.798218 97.825394,60.798218 91.728310,60.798218 
	C91.728310,65.476486 91.515388,69.609192 91.861465,73.694557 
	C91.961861,74.879677 93.663376,75.929161 94.630905,77.040825 
	C95.518700,75.865440 96.931854,74.789520 97.177429,73.492531 
	C97.599762,71.262047 97.294273,68.893745 97.294273,65.907021 
	C101.549980,65.907021 105.454659,65.907021 109.708771,66.237595 
M92.024239,43.719627 
	C91.731155,47.200733 91.438080,50.681835 91.111877,54.556404 
	C93.761398,54.430588 95.479370,54.349007 97.154961,54.269436 
	C97.154961,50.856796 97.411057,47.896458 97.082733,45.002419 
	C96.756088,42.123192 95.232513,40.759033 92.024239,43.719627 
z"/>
<path fill="#050505" opacity="1.000000" stroke="none" 
	d="
M267.855103,76.793976 
	C270.956726,72.733566 270.636658,69.199898 266.900604,65.838455 
	C264.061859,63.284325 260.904877,61.087673 257.961273,58.645466 
	C251.939301,53.649261 249.806412,45.347855 252.968246,39.490162 
	C256.135010,33.623283 264.970123,30.823790 273.382935,33.021564 
	C280.042175,34.761227 283.232819,39.980667 282.793243,48.673714 
	C278.700470,48.673714 274.591095,48.673714 270.201477,48.673714 
	C270.026306,47.475666 270.160614,46.033318 269.571838,45.004932 
	C268.932129,43.887508 267.620117,43.154991 266.601227,42.254646 
	C265.961914,43.597996 264.581787,45.127411 264.861237,46.239994 
	C265.255951,47.811539 266.687225,49.299099 268.013092,50.424786 
	C271.049957,53.003128 274.407623,55.205486 277.425201,57.804192 
	C283.417084,62.964352 284.360138,69.755333 282.649750,76.949402 
	C280.976562,83.986824 274.444611,87.544472 265.279358,86.979713 
	C257.628723,86.508270 253.001434,82.573326 251.891220,75.383842 
	C251.491669,72.796379 251.460327,70.152061 251.204514,66.792702 
	C253.746689,66.792702 255.833420,66.792702 257.920135,66.792702 
	C259.882874,66.792702 261.845612,66.792702 263.563446,66.792702 
	C265.548737,70.227112 261.996918,75.257324 267.855103,76.793976 
z"/>
<path fill="#0A0A0A" opacity="1.000000" stroke="none" 
	d="
M62.954823,60.994987 
	C62.954762,66.115234 62.954762,70.736435 62.954762,75.817062 
	C67.369438,75.817062 71.438965,75.817062 75.711586,75.817062 
	C75.711586,79.524803 75.711586,82.768486 75.711586,86.275116 
	C67.326782,86.275116 59.082146,86.275116 50.506126,86.275116 
	C50.506126,65.478432 50.506126,44.811481 50.506126,23.858036 
	C54.430790,23.858036 58.357651,23.858036 62.954884,23.858036 
	C62.954884,36.073792 62.954884,48.284866 62.954823,60.994987 
z"/>
<path fill="#090909" opacity="1.000000" stroke="none" 
	d="
M135.160248,60.003113 
	C135.160217,56.343033 135.271149,53.177044 135.122009,50.023357 
	C135.019745,47.860912 136.138794,45.528915 132.602417,44.062374 
	C131.293976,43.519772 131.784164,38.640022 131.460266,35.792831 
	C138.574997,33.601170 133.376129,27.704254 135.765045,23.852673 
	C139.413330,23.852673 143.336548,23.852673 147.824295,23.852673 
	C147.824295,26.414276 147.558792,28.885393 147.928482,31.257521 
	C148.134995,32.582607 149.949936,33.690830 150.072922,34.988453 
	C150.376953,38.195946 150.320923,41.476494 149.991806,44.684826 
	C149.869843,45.873890 147.949829,46.929443 147.924881,48.069401 
	C147.739410,56.549450 147.721222,65.037964 147.931290,73.516861 
	C147.964249,74.847137 149.742630,76.050438 150.145203,77.473366 
	C150.901505,80.146538 151.242477,82.937218 151.985870,86.905106 
	C147.754929,86.905106 144.473404,87.204170 141.268845,86.835068 
	C136.451309,86.280190 135.305374,82.562561 135.217728,78.467751 
	C135.089615,72.481651 135.169250,66.491104 135.160248,60.003113 
z"/>
<path fill="#080808" opacity="1.000000" stroke="none" 
	d="
M146.621613,668.467896 
	C146.597931,647.739624 146.597931,627.471191 146.597931,607.007690 
	C151.067062,607.007690 155.145523,607.007690 159.458771,607.007690 
	C159.458771,627.973206 159.458771,648.693665 159.458771,670.408508 
	C155.066071,669.900879 150.855682,669.414307 146.621613,668.467896 
z"/>
<path fill="#050505" opacity="1.000000" stroke="none" 
	d="
M194.318008,32.917130 
	C196.776001,32.916401 198.821304,32.644131 200.749619,33.002041 
	C202.320755,33.293652 203.751953,34.339306 205.895920,35.360569 
	C207.378983,34.557888 209.990448,33.144489 213.342499,31.330257 
	C213.342499,35.799145 213.342499,39.172283 213.342499,42.545185 
	C204.326401,44.288185 204.325531,44.288185 204.324646,53.834042 
	C204.323654,64.589699 204.324417,75.345352 204.324417,86.256813 
	C199.876709,86.256813 195.969559,86.256813 191.603516,86.256813 
	C191.603516,71.084892 191.603378,56.165901 191.603683,41.246906 
	C191.603714,39.252182 191.379501,37.218960 191.709061,35.280037 
	C191.859207,34.396656 193.105576,33.699593 194.318008,32.917130 
z"/>
<path fill="#050505" opacity="1.000000" stroke="none" 
	d="
M237.027435,626.047852 
	C237.027420,622.612976 237.027420,619.669434 237.027420,616.504883 
	C241.437592,616.504883 245.374573,616.504883 249.605164,616.504883 
	C249.786545,617.710571 249.975418,618.966064 250.107468,619.843811 
	C252.619965,618.343018 255.278122,616.755188 258.760803,614.674866 
	C258.760803,619.233887 258.760803,622.460999 258.760803,625.822571 
	C258.659088,625.915283 258.453033,626.267639 258.185669,626.322815 
	C249.945496,628.022888 249.944717,628.018372 249.944855,636.557312 
	C249.945023,647.502380 249.944901,658.447449 249.944901,669.698853 
	C245.669174,669.698853 241.616837,669.698853 237.027451,669.698853 
	C237.027451,655.331421 237.027451,640.935242 237.027435,626.047852 
z"/>
<path fill="#0B0B0B" opacity="1.000000" stroke="none" 
	d="
M262.447510,659.947937 
	C262.447510,645.211060 262.447510,630.965027 262.447510,616.491455 
	C266.914246,616.491455 270.833740,616.491455 275.006165,616.491455 
	C275.006165,634.297058 275.006165,652.018250 275.006165,669.879150 
	C270.924988,669.879150 266.959381,669.879150 262.447510,669.879150 
	C262.447510,666.667969 262.447510,663.553406 262.447510,659.947937 
z"/>
<path fill="#060606" opacity="1.000000" stroke="none" 
	d="
M127.895302,55.000122 
	C127.895294,65.626564 127.895294,75.753044 127.895294,86.197662 
	C123.602432,86.197662 119.533424,86.197662 115.225113,86.197662 
	C115.225113,68.581741 115.225113,51.046139 115.225113,33.211422 
	C119.259323,33.211422 123.306541,33.211422 127.895309,33.211422 
	C127.895309,40.321247 127.895309,47.410702 127.895302,55.000122 
z"/>
<path fill="#1A1A1A" opacity="1.000000" stroke="none" 
	d="
M188.780685,242.259048 
	C187.236832,242.786850 186.034058,243.449677 184.773056,244.144592 
	C183.457153,239.955261 185.702591,235.269516 189.707977,234.081558 
	C188.368225,239.592026 192.572998,240.226822 196.061279,241.358444 
	C207.737793,245.146469 219.304153,244.826889 230.721558,240.209106 
	C233.075485,239.257065 235.434097,238.467972 234.816269,235.053055 
	C234.708588,234.457840 235.785995,233.648224 236.316025,232.937637 
	C236.945557,233.705246 237.789734,234.383041 238.156967,235.260437 
	C238.789688,236.772171 239.249176,238.385193 239.548843,239.998886 
	C239.812180,241.416855 239.757019,242.893982 239.842499,244.344986 
	C238.506973,243.736374 237.171448,243.127762 235.214661,242.236008 
	C220.434326,249.877228 204.804306,250.506683 188.780685,242.259048 
z"/>
<path fill="#0F0F0F" opacity="1.000000" stroke="none" 
	d="
M266.206848,603.872437 
	C269.306976,603.872437 271.946442,603.872437 274.925964,603.872437 
	C274.925964,606.918884 274.925964,609.772583 274.925964,612.690552 
	C270.847321,612.690552 266.926208,612.690552 262.167603,612.690552 
	C264.283936,609.735596 258.610352,604.769775 266.206848,603.872437 
z"/>
<path fill="#0D0D0D" opacity="1.000000" stroke="none" 
	d="
M117.295555,20.222878 
	C120.903625,20.219532 124.045525,20.219532 127.548615,20.219532 
	C127.548615,23.210199 127.548615,25.917624 127.548615,28.929192 
	C123.521950,28.929192 119.468636,28.929192 114.154793,28.929192 
	C115.123680,25.776485 115.976532,23.001354 117.295555,20.222878 
z"/>
<path fill="#1C1C1D" opacity="1.000000" stroke="none" 
	d="
M212.492950,224.966080 
	C206.547287,223.877914 203.234940,219.363266 203.859818,213.787567 
	C204.374115,209.198608 206.130096,207.243759 210.004349,207.378159 
	C209.725204,208.325287 209.661194,209.309875 209.187897,210.022751 
	C206.290619,214.386566 207.061066,217.997559 211.017151,221.300980 
	C211.933395,222.066055 212.211365,223.595459 212.492950,224.966080 
z"/>
<path fill="#C44451" opacity="1.000000" stroke="none" 
	d="
M167.998886,220.641846 
	C167.176651,224.126602 166.337921,227.285660 165.236664,230.350372 
	C164.994141,231.025269 163.864426,231.591019 163.053574,231.750183 
	C162.723160,231.815033 161.644714,230.504913 161.773666,230.089722 
	C162.834244,226.675491 164.056671,223.307495 165.402908,219.995758 
	C165.487076,219.788727 167.025894,220.173019 167.998886,220.641846 
z"/>
<path fill="#C33A47" opacity="1.000000" stroke="none" 
	d="
M154.979034,227.792282 
	C155.819427,224.062683 156.663345,220.709259 157.764771,217.442673 
	C157.996506,216.755371 159.173813,216.386887 159.915390,215.871490 
	C160.333725,216.633942 161.242691,217.518265 161.088638,218.138550 
	C160.255203,221.494141 159.245850,224.817093 158.032486,228.052017 
	C157.894699,228.419342 156.100418,228.165298 154.979034,227.792282 
z"/>
<path fill="#C23C4A" opacity="1.000000" stroke="none" 
	d="
M260.110077,219.673172 
	C262.098480,223.099899 263.761719,226.680206 265.424927,230.260529 
	C264.438232,230.612747 263.451569,230.964966 262.464874,231.317169 
	C261.571564,227.487030 260.678223,223.656891 260.110077,219.673172 
z"/>
<path fill="#C33C49" opacity="1.000000" stroke="none" 
	d="
M266.918823,215.949738 
	C268.923187,219.711075 270.582397,223.592377 272.070557,227.538239 
	C272.192993,227.862946 271.242523,228.826935 270.617554,229.104950 
	C270.279114,229.255493 269.188599,228.672699 269.095276,228.268738 
	C268.161499,224.226105 267.364685,220.151855 266.918823,215.949738 
z"/>
<path fill="#C5414E" opacity="1.000000" stroke="none" 
	d="
M274.413696,216.272491 
	C275.651581,216.040039 277.566986,215.852585 277.782288,216.371063 
	C278.777954,218.768982 279.420990,221.339874 279.917267,223.901688 
	C280.058167,224.628967 279.278137,225.534653 278.920441,226.358521 
	C278.067535,225.814651 276.715942,225.446045 276.452057,224.695160 
	C275.533875,222.082520 274.992676,219.337418 274.413696,216.272491 
z"/>
<path fill="#C5414E" opacity="1.000000" stroke="none" 
	d="
M150.103317,225.821167 
	C148.920471,225.472672 147.112305,224.708649 147.186859,224.251846 
	C147.632721,221.519196 148.399353,218.816986 149.333466,216.202835 
	C149.541504,215.620621 150.850357,215.431763 151.652374,215.061829 
	C151.998825,215.884964 152.771942,216.801422 152.615967,217.514679 
	C152.022644,220.227905 151.129211,222.875473 150.103317,225.821167 
z"/>
<path fill="#1B0F10" opacity="1.000000" stroke="none" 
	d="
M373.334412,482.087646 
	C373.532227,481.721161 374.068878,481.401825 374.935913,481.092133 
	C374.735291,481.446075 374.204315,481.790436 373.334412,482.087646 
z"/>
<path fill="#1B0F10" opacity="1.000000" stroke="none" 
	d="
M183.568176,537.371582 
	C183.379471,537.572144 182.939819,537.555054 182.255585,537.305298 
	C182.446396,537.099731 182.881836,537.126831 183.568176,537.371582 
z"/>
<path fill="#1F1314" opacity="1.000000" stroke="none" 
	d="
M205.204361,525.139160 
	C204.973129,524.992493 205.019989,524.714294 205.268982,524.276855 
	C205.682266,524.397522 205.686050,524.694214 205.204361,525.139160 
z"/>
<path fill="#4B181C" opacity="1.000000" stroke="none" 
	d="
M15.706937,207.106415 
	C15.911219,207.296432 15.870422,207.587326 15.648956,208.281021 
	C15.466144,208.191650 15.464002,207.699463 15.706937,207.106415 
z"/>
<path fill="#1B0F10" opacity="1.000000" stroke="none" 
	d="
M303.321106,502.776154 
	C303.349060,502.556885 303.674438,502.361298 304.292358,502.159241 
	C304.262817,502.368439 303.940704,502.584137 303.321106,502.776154 
z"/>
<path fill="#1B0F10" opacity="1.000000" stroke="none" 
	d="
M357.677673,499.661987 
	C357.677673,499.851074 357.502014,499.933868 357.161072,499.990051 
	C357.099518,499.763794 357.268250,499.627869 357.677673,499.661987 
z"/>
<path fill="#1F1314" opacity="1.000000" stroke="none" 
	d="
M88.717850,492.369019 
	C88.883484,492.218567 89.232178,492.274384 89.772972,492.518860 
	C89.610352,492.663452 89.255623,492.619415 88.717850,492.369019 
z"/>
<path fill="#C72230" opacity="1.000000" stroke="none" 
	d="
M53.901577,221.000137 
	C53.902203,213.679214 53.902203,206.858215 53.902203,199.468460 
	C55.310177,200.019470 56.364151,200.270187 57.249592,200.801651 
	C103.358566,228.477859 149.421036,256.231903 195.612961,283.768829 
	C199.165329,285.886566 200.189880,288.188904 200.210312,292.031067 
	C200.500214,346.507416 200.886368,400.983337 201.310349,455.458862 
	C201.468491,475.776276 201.785950,496.092407 202.026093,516.409180 
	C202.045486,518.050537 202.028625,519.692200 202.028625,522.058350 
	C152.787323,507.636414 104.090881,493.374084 55.055260,479.012421 
	C55.055260,435.371307 55.055260,391.587189 55.055260,346.975616 
	C60.780148,347.382263 66.497559,347.698212 72.197456,348.209412 
	C93.080902,350.082489 113.958694,352.018646 134.838257,353.935120 
	C141.628479,354.558380 148.585953,354.496460 155.145477,356.079712 
	C159.227997,357.065094 162.643982,360.659912 166.492981,362.848114 
	C167.823044,363.604279 169.557281,363.649506 171.106903,364.019470 
	C170.273056,362.623016 169.598450,361.091827 168.561966,359.866821 
	C167.457367,358.561310 166.010559,357.545349 164.713165,356.402954 
	C164.842834,355.921265 164.972504,355.439545 165.102173,354.957855 
	C168.007492,354.957855 170.930099,355.136505 173.808472,354.858032 
	C174.776886,354.764374 175.632889,353.508789 176.540253,352.784241 
	C175.621735,352.240631 174.729813,351.290436 173.779846,351.228394 
	C170.708771,351.027740 167.616364,351.153503 162.961426,351.153503 
	C166.485001,348.230896 168.921249,346.366974 171.142715,344.274963 
	C171.836853,343.621277 171.951385,342.352142 172.331238,341.364716 
	C171.182129,341.399261 169.884918,341.108368 168.919861,341.547455 
	C167.593307,342.150970 166.448792,343.231232 165.346985,344.239227 
	C159.558456,349.534729 153.635544,352.320923 144.948441,351.310638 
	C115.709511,347.910370 86.333954,345.685425 57.012405,342.991943 
	C56.378685,342.933716 55.765705,342.649719 53.900951,342.114624 
	C53.900951,302.052765 53.900951,261.776428 53.901577,221.000137 
z"/>
<path fill="#C72230" opacity="1.000000" stroke="none" 
	d="
M291.975830,350.086914 
	C288.701691,350.404083 285.795776,350.344543 283.094086,351.058258 
	C273.981964,353.465515 267.236908,349.531403 260.876129,343.663330 
	C259.389709,342.292023 256.826782,342.087585 254.759140,341.346313 
	C256.030548,343.079437 257.171875,344.931274 258.612488,346.509979 
	C259.875488,347.894043 261.474335,348.971619 264.071594,351.143555 
	C259.579041,351.143555 256.647491,350.992188 253.745895,351.220734 
	C252.640137,351.307800 251.603043,352.266602 250.534637,352.828125 
	C251.628036,353.541595 252.670227,354.751648 253.824936,354.870758 
	C256.704010,355.167694 259.634216,354.968536 262.543884,354.968536 
	C262.663727,355.408112 262.783539,355.847717 262.903351,356.287292 
	C260.884155,357.882843 258.750519,359.359802 256.907776,361.138184 
	C256.262543,361.760895 256.332855,363.125031 256.076447,364.150604 
	C257.099792,364.110168 258.598022,364.496948 259.075867,363.965759 
	C267.452637,354.654358 278.895996,355.074921 289.891907,354.072418 
	C315.414459,351.745544 340.937347,349.422180 366.462982,347.129639 
	C368.099884,346.982635 369.761414,347.110504 371.929565,347.110504 
	C372.068604,348.622742 372.315002,350.039154 372.312012,351.455017 
	C372.225800,392.277557 372.059296,433.100098 372.097107,473.922455 
	C372.100739,477.814148 370.806519,479.293304 367.143463,480.360352 
	C321.770294,493.577271 276.451050,506.979340 231.111084,520.310486 
	C229.407089,520.811523 227.633743,521.076660 225.049622,521.633362 
	C225.049622,519.248535 225.032547,517.500427 225.052231,515.752686 
	C225.286850,494.932800 225.600739,474.113495 225.747269,453.292999 
	C225.939575,425.968170 225.933304,398.641937 226.138092,371.317261 
	C226.340332,344.335938 226.740631,317.356049 226.928207,290.374695 
	C226.948120,287.511292 227.941010,285.988190 230.389725,284.526550 
	C272.273010,259.526215 314.092438,234.418915 355.920593,209.326309 
	C361.283112,206.109344 366.615936,202.842926 372.617279,199.202225 
	C372.870728,201.386246 373.142029,202.624756 373.139679,203.862747 
	C373.054993,248.350510 372.890533,292.838257 372.926483,337.325897 
	C372.929871,341.515167 371.921326,342.984436 367.497894,343.343201 
	C342.460815,345.373993 317.454437,347.783752 291.975830,350.086914 
z"/>
<path fill="#C22331" opacity="1.000000" stroke="none" 
	d="
M395.247314,202.583466 
	C401.245544,202.801193 406.035797,207.633362 406.054443,213.267410 
	C406.099121,226.762405 406.038086,240.258041 406.136017,253.752563 
	C406.446564,296.550964 406.800323,339.349091 407.156738,382.147125 
	C407.467346,419.447571 407.724609,456.748932 408.233704,494.046722 
	C408.294830,498.527344 406.823303,500.392670 402.632599,501.693573 
	C371.349701,511.404816 340.129089,521.317566 308.912140,531.240112 
	C281.978210,539.801270 255.117630,548.596008 228.137024,557.006409 
	C217.300735,560.384277 206.013336,560.521179 195.189911,557.386841 
	C157.354340,546.430237 119.651321,535.015991 81.900009,523.768616 
	C62.948322,518.122314 44.036453,512.337524 25.025494,506.898743 
	C20.613346,505.636505 20.066204,503.049622 20.065096,499.177765 
	C20.047821,438.866028 20.023331,378.554016 19.802084,318.242767 
	C19.670752,282.441498 19.193106,246.641525 18.765581,210.374481 
	C22.203590,207.010437 25.747185,204.112869 30.546352,200.188614 
	C30.733809,203.733017 30.914221,205.602142 30.919605,207.471771 
	C31.051073,253.130920 31.107533,298.790375 31.295494,344.449280 
	C31.495749,393.094360 31.811804,441.738983 32.091423,490.383728 
	C32.135700,498.087067 32.341530,498.084442 39.676723,500.151764 
	C78.751610,511.164368 117.803345,522.259094 156.859161,533.339294 
	C171.105957,537.381104 185.161819,542.403564 199.650024,545.171936 
	C208.381836,546.840454 218.380081,547.011353 226.778091,544.460449 
	C279.642456,528.402771 332.247467,511.486298 384.861237,494.613586 
	C394.587341,491.494568 392.994537,493.464630 393.013184,483.383942 
	C393.092712,440.390747 392.842133,397.395477 393.181244,354.404663 
	C393.555664,306.941132 394.442841,259.481689 395.278687,211.371582 
	C395.352936,210.093384 395.255188,209.464066 395.157471,208.834747 
	C395.180176,208.467606 395.202881,208.100449 395.373871,207.249847 
	C395.410858,206.113495 395.299561,205.460587 395.188293,204.807678 
	C395.208282,204.171768 395.228271,203.535843 395.247314,202.583466 
z"/>
<path fill="#4B181C" opacity="1.000000" stroke="none" 
	d="
M395.082031,209.207748 
	C395.255188,209.464066 395.352936,210.093384 395.267090,210.908981 
	C395.057861,210.590424 395.032227,210.085587 395.082031,209.207748 
z"/>
<path fill="#4B181C" opacity="1.000000" stroke="none" 
	d="
M395.113647,205.200912 
	C395.299561,205.460587 395.410858,206.113495 395.350342,206.974609 
	C395.132019,206.653275 395.085541,206.123703 395.113647,205.200912 
z"/>
<path fill="#F8F8F9" opacity="1.000000" stroke="none" 
	d="
M273.750122,172.154556 
	C280.157043,173.123367 284.632904,170.200806 288.764496,165.810120 
	C292.423401,174.785339 291.244720,183.475586 289.502472,192.114090 
	C289.334595,192.946304 287.288391,193.937851 286.107544,193.946457 
	C269.633636,194.066620 253.157974,194.088577 236.685120,193.911804 
	C235.396271,193.897980 233.202896,192.406601 232.986649,191.298187 
	C230.449646,178.295547 230.207581,165.460571 237.401199,153.579544 
	C244.455505,141.928680 260.416626,137.943222 271.488037,145.314392 
	C264.856750,148.888397 260.764282,153.992508 262.409210,161.782394 
	C263.629181,167.559830 267.635071,170.861008 273.750122,172.154556 
z"/>
<path fill="#F7F7F8" opacity="1.000000" stroke="none" 
	d="
M159.124908,160.715134 
	C162.459183,174.395706 173.556778,176.877594 185.884232,166.792023 
	C189.500992,175.627731 188.286209,184.429657 186.444916,193.190948 
	C186.292450,193.916367 184.389374,194.726822 183.295044,194.733490 
	C166.639160,194.834595 149.982040,194.858841 133.327057,194.702133 
	C132.165161,194.691208 130.194138,193.280334 129.989273,192.245346 
	C127.484138,179.588821 127.165535,167.097672 133.793701,155.341583 
	C140.806564,142.903168 155.558243,138.669098 168.759384,145.845245 
	C162.996201,149.132355 158.735306,153.300583 159.124908,160.715134 
z"/>
<path fill="#EDEDED" opacity="1.000000" stroke="none" 
	d="
M217.028503,654.351440 
	C215.624710,653.389465 213.844299,652.309998 213.800873,651.164734 
	C213.519104,643.733398 213.516190,636.285278 213.699921,628.849487 
	C213.725998,627.794495 215.261505,626.776855 216.098389,625.741882 
	C217.089172,626.667358 218.922440,627.578430 218.938446,628.520447 
	C219.075806,636.604614 218.907150,644.694885 218.734985,652.781250 
	C218.724701,653.264221 217.900604,653.729797 217.028503,654.351440 
z"/>
<path fill="#FBFBFB" opacity="1.000000" stroke="none" 
	d="
M318.532837,42.817429 
	C322.449371,41.531494 322.892609,44.174301 322.929688,46.458965 
	C323.072235,55.240383 323.093811,64.029190 322.841431,72.806061 
	C322.800964,74.214172 321.133545,75.575516 320.218201,76.958481 
	C319.201447,75.836113 317.321686,74.727531 317.303497,73.589218 
	C317.147675,63.834118 317.319031,54.073521 317.441925,44.315186 
	C317.447296,43.889515 317.932312,43.469883 318.532837,42.817429 
z"/>
<path fill="#EFEFEE" opacity="1.000000" stroke="none" 
	d="
M124.343552,637.359375 
	C124.693100,632.305359 124.992592,627.717834 125.292076,623.130371 
	C125.773621,623.084534 126.255157,623.038757 126.736694,622.992981 
	C127.589081,631.718689 128.441467,640.444397 129.331024,649.550659 
	C127.367760,649.550659 125.822151,649.550659 123.734268,649.550659 
	C123.920578,645.644470 124.107040,641.735168 124.343552,637.359375 
z"/>
<path fill="#F0F0F0" opacity="1.000000" stroke="none" 
	d="
M173.644180,45.849701 
	C173.735062,54.740929 173.935516,63.212925 173.644958,71.668045 
	C173.582153,73.495522 171.931061,76.634926 170.702545,76.794739 
	C167.277008,77.240364 167.779602,73.980217 167.761566,71.799583 
	C167.691589,63.334171 167.667633,54.865177 167.879456,46.403854 
	C167.913925,45.026947 169.225754,43.682026 169.947174,42.322327 
	C171.157410,43.356358 172.367615,44.390388 173.644180,45.849701 
z"/>
<path fill="#E8E8E8" opacity="1.000000" stroke="none" 
	d="
M354.426788,60.840431 
	C355.714478,59.814003 356.745575,59.082691 358.539276,57.810535 
	C358.539276,63.656960 358.718292,68.680153 358.406586,73.672699 
	C358.333588,74.841530 356.598694,75.906593 355.628387,77.019394 
	C354.773041,75.948730 353.178741,74.868599 353.192322,73.809067 
	C353.246490,69.581070 353.800934,65.359497 354.426788,60.840431 
z"/>
<path fill="#FAFAFA" opacity="1.000000" stroke="none" 
	d="
M295.900177,642.642151 
	C296.843292,642.788208 297.945831,643.167542 297.956329,643.575073 
	C298.071381,648.041199 298.209930,652.526062 297.880737,656.971741 
	C297.790100,658.196045 296.165314,659.306824 295.244537,660.469727 
	C294.402069,659.405029 292.853149,658.350220 292.838043,657.273987 
	C292.768799,652.336426 290.800446,646.934021 295.900177,642.642151 
z"/>
<path fill="#F6F6F6" opacity="1.000000" stroke="none" 
	d="
M182.912659,629.638428 
	C182.938965,632.521179 182.938965,634.980042 182.938965,637.788940 
	C181.027512,637.875488 179.289200,637.954163 176.993317,638.058167 
	C176.993317,635.117676 176.680084,632.322083 177.115692,629.648499 
	C177.360687,628.144775 178.841949,626.842590 179.766266,625.449585 
	C180.806290,626.704590 181.846329,627.959595 182.912659,629.638428 
z"/>
<path fill="#F1F1F1" opacity="1.000000" stroke="none" 
	d="
M232.826904,54.493290 
	C231.376495,53.661415 229.398636,52.781422 229.437683,52.002529 
	C229.597031,48.823437 230.305176,45.659336 231.035172,42.542179 
	C231.102448,42.254906 233.531326,42.153847 233.561142,42.278320 
	C234.298798,45.357712 235.058380,48.462254 235.328217,51.604042 
	C235.405167,52.499798 233.969025,53.525524 232.826904,54.493290 
z"/>
<path fill="#F1F1F1" opacity="1.000000" stroke="none" 
	d="
M92.228867,43.362961 
	C95.232513,40.759033 96.756088,42.123192 97.082733,45.002419 
	C97.411057,47.896458 97.154961,50.856796 97.154961,54.269436 
	C95.479370,54.349007 93.761398,54.430588 91.111877,54.556404 
	C91.438080,50.681835 91.731155,47.200733 92.228867,43.362961 
z"/>
</svg>